<svg xmlns="http://www.w3.org/2000/svg" viewBox="0 0 47.07 36.73">
  <g data-name="Layer 2">
    <path fill="#e9e9e9" d="M13.74 36.73a10.36 10.36 0 0 1-3.67-1A23 23 0 0 1 2.52 29 15.57 15.57 0 0 1 0 20.14a16.74 16.74 0 0 1 2.18-7.89 22.61 22.61 0 0 1 6.66-7.42A29.25 29.25 0 0 1 20 0v3a21 21 0 0 0-8.23 4.08 8.57 8.57 0 0 0-3.47 6.8 8.9 8.9 0 0 0 1.29 4.62q1.29 2.18 5.51 4.5l4.76 2.45.14 1.62-3 6.67q-1.08 2.99-3.26 2.99zm27.07 0a10.36 10.36 0 0 1-3.67-1A23 23 0 0 1 29.59 29a15.57 15.57 0 0 1-2.52-8.91 16.75 16.75 0 0 1 2.18-7.89 22.62 22.62 0 0 1 6.67-7.42A29.25 29.25 0 0 1 47.07 0v3a21 21 0 0 0-8.23 4.08 8.57 8.57 0 0 0-3.47 6.8 8.9 8.9 0 0 0 1.29 4.63Q38 20.68 42.18 23l4.76 2.45.14 1.63-3 6.67q-1.08 2.98-3.27 2.98z" data-name="Layer 1"/>
  </g>
</svg>
