<svg xmlns="http://www.w3.org/2000/svg" data-name="Layer 1" viewBox="0 0 603 170" preserveAspectRatio="none slice" >
  <g fill="none" stroke="#e9e9e9" stroke-miterlimit="10">
    <path d="M172.42 0h172.42v85.15H172.42z"/>
    <path d="M258.53 85.15l-43.02-42.67L258.52 0m-86.1 42.48L214.9 0m-42.48 42.48h43.09m0 0v42.67M258.53 0v85.15M258.52 0l86.32 85.15m-172.42 0H0V0h172.42z"/>
    <path d="M86.31 85.15l43.02-42.67L86.32 0m86.1 42.48L129.94 0m42.48 42.48h-43.09m0 0v42.67M86.31 0v85.15M86.32 0L0 85.15m172.42 0h172.42v85.15H172.42z"/>
    <path d="M258.53 85.15l-43.02 42.67 43.01 42.48m-86.1-42.48l42.48 42.48m-42.48-42.48h43.09m0 0V85.15m43.02 85.15V85.15m-.01 85.15l86.32-85.15m-172.42 85.14H0V85.14h172.42z"/>
    <path d="M86.31 85.15l43.02 42.67-43.01 42.48m86.1-42.48l-42.48 42.48m42.48-42.48h-43.09m0 0V85.15M86.31 170.3V85.15m.01 85.15L0 85.15m172.42 85.15h172.42v85.15H172.42z"/>
    <path d="M258.53 255.44l-43.02-42.67 43.01-42.47m-86.1 42.47l42.48-42.47m43.63 0v85.14m-.01-85.14l86.32 85.14m-172.42 0H0v-85.15h172.42z"/>
    <path d="M86.31 255.44l43.02-42.67-43.01-42.47m86.1 42.47l-42.48-42.47m-43.63 0v85.14m.01-85.14L0 255.44M43.16 42.56v85.14M430.94 0h172.42v85.15H430.94z"/>
    <path d="M517.06 85.15l-43.03-42.67L517.05 0m-86.11 42.48L473.42 0m-42.48 42.48h43.09m0 0v42.67m85.76-42.97v42.97M517.06 0v85.15M517.05 0l86.31 85.15m-172.41 0H258.53V0h172.42z"/>
    <path d="M344.83 85.15l43.03-42.67L344.84 0m86.1 42.48L388.47 0m42.47 42.48h-43.09m0 0v42.67M344.83 0v85.15M344.84 0l-86.32 85.15m172.42 0h172.42v85.15H430.94z"/>
    <path d="M517.06 85.15l-43.03 42.67 43.02 42.48m-86.11-42.48l42.48 42.48m-42.48-42.48h43.09m0 0V85.15m85.76 42.97V85.15m-42.73 85.15V85.15m-.01 85.15l86.31-85.15m-172.41 85.14H258.53V85.14h172.42z"/>
    <path d="M344.83 85.15l43.03 42.67-43.02 42.48m86.1-42.48l-42.47 42.48m42.47-42.48h-43.09m0 0V85.15m-43.02 85.15V85.15m.01 85.15l-86.32-85.15m172.42 85.15h172.42v85.15H430.94z"/>
    <path d="M517.06 255.44l-43.03-42.67 43.02-42.47m-86.11 42.47l42.48-42.47m43.64 0v85.14m-.01-85.14l86.31 85.14m-172.41 0H258.53v-85.15h172.42z"/>
    <path d="M344.83 255.44l43.03-42.67-43.02-42.47m86.1 42.47l-42.47-42.47m-43.64 0v85.14m.01-85.14l-86.32 85.14m43.16-212.88v85.14"/>
  </g>
</svg>