<svg xmlns="http://www.w3.org/2000/svg" data-name="Layer 1" viewBox="0 0 1281.43 483.1">
    <path fill="#fff" d="M25.63 44.17l35 60.33 41.07 70.76 38.47 66.29 41.06 70.76 35.01 60.34 41.06 70.75 23.03 39.69v.01h82.15l-.02-.01-25.63-44.16-38.46-66.28-41.07-70.78-35.01-60.32-41.06-70.77-38.47-66.28-41.06-70.76L82.13 0H0l25.63 44.17zM178.78 44.17l35.01 60.33 41.07 70.76 38.47 66.29 41.05 70.76 35.02 60.34 41.06 70.75 23.03 39.69v.01h82.14l-.01-.01-25.63-44.16-38.47-66.28-41.06-70.78-35.01-60.32-41.07-70.77-38.46-66.28-41.06-70.76L235.28 0h-82.12l25.62 44.17zM331.94 44.17l35.01 60.33 41.07 70.76 38.46 66.29 41.06 70.76 35.02 60.34 41.06 70.75 23.03 39.69v.01h82.14l-.01-.01-25.64-44.16-38.46-66.28-41.06-70.78-35.01-60.32-41.07-70.77-38.47-66.28-41.05-70.76L388.44 0h-82.12l25.62 44.17zM485.1 44.17l35.01 60.33 41.06 70.76 38.47 66.29 41.06 70.76 35.02 60.34 41.05 70.75 23.04 39.69v.01h82.14l-.02-.01-25.63-44.16-38.46-66.28-41.07-70.78-35-60.32-41.07-70.77-38.47-66.28-41.06-70.76L541.6 0h-82.12l25.62 44.17zM638.26 44.17l35.01 60.33 41.06 70.76 38.47 66.29 41.06 70.76 35.01 60.34 41.06 70.75 23.04 39.69v.01h82.14l-.02-.01-25.63-44.16L911 372.65l-41.07-70.78-35-60.32-41.07-70.77-38.47-66.28-41.06-70.76L694.76 0h-82.13l25.63 44.17zM791.42 44.17l35 60.33 41.07 70.76 38.47 66.29 41.06 70.76 35.01 60.34 41.06 70.75 23.04 39.69v.01h82.14l-.02-.01-25.63-44.16-38.46-66.28-41.07-70.78-35-60.32-41.07-70.77-38.47-66.28-41.06-70.76L847.92 0h-82.13l25.63 44.17zM944.58 44.17l35 60.33 41.07 70.76 38.47 66.29 41.06 70.76 35.01 60.34 41.06 70.75 23.04 39.69v.01h82.13l-.01-.01-25.63-44.16-38.46-66.28-41.07-70.78-35.01-60.32-41.06-70.77-38.47-66.28-41.06-70.76L1001.08 0h-82.13l25.63 44.17z"
    />
</svg>