<svg xmlns="http://www.w3.org/2000/svg" viewBox="0 0 447.38 455.42">
  <g data-name="Layer 2">
    <g data-name="Layer 1">
      <path d="M302.68 440.5h-158a16.24 16.24 0 0 1-11.58-4.89l-112-115.08a16.07 16.07 0 0 1-4.58-11.26V146.15a16.07 16.07 0 0 1 4.58-11.27l112-115.08a16.24 16.24 0 0 1 11.58-4.89h158a16.24 16.24 0 0 1 11.58 4.89l112 115.07a16.07 16.07 0 0 1 4.58 11.27v163.14a16.07 16.07 0 0 1-4.58 11.26l-112 115.08a16.24 16.24 0 0 1-11.58 4.88zM24 137.67a12.09 12.09 0 0 0-3.44 8.48v163.13a12.09 12.09 0 0 0 3.44 8.47l112 115.08a12.22 12.22 0 0 0 8.71 3.68h158a12.22 12.22 0 0 0 8.71-3.68l112-115.08a12.09 12.09 0 0 0 3.44-8.48V146.15a12.09 12.09 0 0 0-3.44-8.48L311.39 22.6a12.22 12.22 0 0 0-8.71-3.68h-158A12.22 12.22 0 0 0 136 22.6L24 137.67z"/>
      <path d="M235.73 455.42a16.15 16.15 0 0 1-5.68-1L79.78 397.81a16.07 16.07 0 0 1-8.93-8.25L1.54 241.89a16.06 16.06 0 0 1-.64-12.14L53.36 78a16.24 16.24 0 0 1 8.4-9.34l143-67.13A16.25 16.25 0 0 1 217.33 1L367.6 57.62a16.07 16.07 0 0 1 8.93 8.25l69.31 147.67a16.07 16.07 0 0 1 .64 12.14L394 377.43a16.24 16.24 0 0 1-8.4 9.34l-143 67.13a16.21 16.21 0 0 1-6.87 1.52zM211.64 4a12.18 12.18 0 0 0-5.17 1.15l-143 67.13a12.22 12.22 0 0 0-6.32 7L4.67 231.05a12.09 12.09 0 0 0 .48 9.14l69.32 147.67a12.09 12.09 0 0 0 6.72 6.21l150.27 56.59a12.22 12.22 0 0 0 9.45-.37l143-67.13a12.21 12.21 0 0 0 6.32-7l52.47-151.79a12.09 12.09 0 0 0-.48-9.14L372.9 67.57a12.09 12.09 0 0 0-6.72-6.21L215.92 4.77a12.14 12.14 0 0 0-4.28-.77z"/>
      <path d="M223.69 380.7c-84.36 0-153-68.63-153-153s68.63-153 153-153 153 68.63 153 153-68.69 153-153 153zm0-295c-78.29 0-142 63.7-142 142s63.7 142 142 142 142-63.7 142-142S302 85.72 223.69 85.72z"/>
    </g>
  </g>
</svg>