<svg xmlns="http://www.w3.org/2000/svg" data-name="Layer 1" viewBox="0 0 199.24 249.56">
    <path fill="#fff" d="M196.39 130a6.14 6.14 0 0 1-9.44-5.19 6.14 6.14 0 0 1 9.44-5.19 6.14 6.14 0 0 1 0 10.38zM168.09 105v39.53a6.14 6.14 0 0 1-2.85 5.19l-6.24 4a6.14 6.14 0 0 1-9.44-5.19v-47.48a6.14 6.14 0 0 1 9.44-5.18l6.24 4a6.14 6.14 0 0 1 2.85 5.13zM130.7 81.29v87a6.14 6.14 0 0 1-2.85 5.19l-6.24 4a6.14 6.14 0 0 1-9.44-5.19V77.33a6.14 6.14 0 0 1 9.44-5.19l6.24 4a6.14 6.14 0 0 1 2.85 5.15zM93.31 57.56V192a6.14 6.14 0 0 1-2.85 5.19l-6.24 4a6.14 6.14 0 0 1-9.44-5.19V53.6a6.14 6.14 0 0 1 9.44-5.19l6.24 4a6.14 6.14 0 0 1 2.85 5.15zM55.92 33.84v181.88a6.14 6.14 0 0 1-2.85 5.19l-6.24 4a6.14 6.14 0 0 1-9.44-5.19V29.88a6.14 6.14 0 0 1 9.44-5.19l6.24 4a6.14 6.14 0 0 1 2.85 5.15zM18.53 10.11v229.34a6.14 6.14 0 0 1-2.85 5.19l-6.24 4A6.14 6.14 0 0 1 0 243.41V6.15A6.14 6.14 0 0 1 9.44 1l6.24 4a6.14 6.14 0 0 1 2.85 5.11z"
    />
</svg>