<svg xmlns="http://www.w3.org/2000/svg" viewBox="0 0 661.59 43.96">
  <g data-name="Layer 2">
    <g data-name="outlines w .125 stroke">
      <path fill="#004990" d="M177.46 0h1.23v35.82h-1.23zM82.8 3.07c9.11 0 14.85 8.26 14.85 16.76s-5.46 14.1-12.28 14.1c-9.24 0-14.89-8.35-14.89-17C70.47 9.56 75 3.07 82.8 3.07m.61 32.26c10.41 0 17.64-6.78 17.64-17.28 0-9.67-7.32-16.53-16.85-16.53S67.08 8.58 67.08 18.3s6.19 17 16.33 17M111 5.17c0-1.77.95-1.68 2.58-1.68 4.45 0 8.67 1.86 8.67 7.39s-4.35 6.43-6.31 6.43c-2.13 0-4.94.22-4.94-.63zm8.94 12.5a8.75 8.75 0 0 0 5.73-7.83c0-8.75-10-7.85-10.77-7.85-2.37 0-4.93.18-7.54.18a25.23 25.23 0 0 1-2.9-.18c-.55 0-.9.28-.9.55 0 1.55 3.89-.32 3.89 4v23.1c0 3.45-3.31 2.81-3.31 4a.47.47 0 0 0 .45.5c1.72 0 3.44-.18 5.15-.18 3.76 0 4.8.18 5.21.18s.77.09.77-.37c0-1.55-4.72-.13-4.72-4V20.1c0-.46-.27-1.28 1.17-1.28 5.09 0 4.41-.13 6 2.41l5 7.95c1.73 2.58 3.5 4.91 6.8 4.91.41 0 4 0 4-.55 0-1.09-3.27.59-6.54-4.41zm13.23-12.83c-1.18-2-3.4-1.4-3.4-2.17a.69.69 0 0 1 .59-.68c1.22 0 2.08.2 5.16.2 1.49 0 2.72-.2 3.17-.2s.86.05.86.46c0 .77-2.13.81-2.13 2.13a3.68 3.68 0 0 0 .81 1.86l5.47 8.76c.36.54.63.81.9.81s.49-.32.85-.91l4.67-7.58a4.28 4.28 0 0 0 1-2.49c0-2.22-3.39-1.27-3.39-2.35 0-.59.45-.68.95-.68 1.08 0 2.22.2 3.3.2 1.31 0 2.62-.2 3.93-.2a.58.58 0 0 1 .5.55c0 .5-.76.68-1.09.86a8.62 8.62 0 0 0-2.53 3.13l-6.34 9.89c-.73 1.14-1.09 1.37-1.09 2v11.13c0 3.95 3.72 2.68 3.72 4.08 0 .41-.41.45-1 .45s-3.31-.2-5-.2c-2 0-3.66.2-4.07.2s-.68 0-.68-.55c0-1.27 3.48-.09 3.48-3.31v-11a4.77 4.77 0 0 0-1-2.31zM62.43 29.9C62.66 33.71 66 32 66 33.61c0 .45-.6.45-1.09.45-.86 0-2.45-.2-4.25-.2-1.4 0-2.85.2-3.92.2-.4 0-.5-.22-.5-.41 0-1.36 2.85-.36 2.81-3.71l-1.22-17.56c0-1.13-.23-1.77-.5-1.77S56.6 11 56.14 12l-9.38 19.1c-.23.41-1 2.26-1.41 2.26s-.77-1-.91-1.32l-9.64-20.2c-.14-.36-.36-.5-.55-.5s-.27.23-.31.68l-1.32 15.9c-.23 6 4.06 4 4.06 5.65 0 .46-.5.5-1.13.5s-2.62-.2-4-.2c-2.35 0-3.12.2-4 .2-.32 0-.45-.22-.45-.55 0-1.54 2.89.32 3.21-4.39.55-7.4 1.09-12.21 1.09-17 0-10.66-3.51-8.12-3.51-9.66 0-.41.36-.5.77-.5.81 0 1.63.2 2.49.2S32.81 2 33.61 2c.64 0 .73.77 1 1.27l10.82 23c.51 1 .68 1.36 1 1.36s.68-.95 1.4-2.45L58.59 3.5c.26-.49.62-1.59 1.16-1.54s1.9.2 2.12.2c1 0 1.45-.2 2.17-.2a.51.51 0 0 1 .45.55C64.5 4 60.88 2 61.06 7.4zM7.36 15.21c0 1.55-.09 1.55 1.71 1.55H14c4.69 0 3.48-3.63 4.55-3.63.36 0 .49.49.49.86 0 1.59-.06 3.13-.06 4.57 0 1.18.06 2.36.06 3.58 0 .41-.18.59-.49.59-1.39 0 .14-4-3.65-4H8.17c-1 0-.81.78-.81 1.45v8.35c0 2.68-.36 3.77 3.43 3.77 10.43 0 12-4.68 12.56-4.68.31 0 .36.46.36.55 0 1.64-1.17 3.22-2.26 4.41C20 34.21 19 34.12 17 34.12c-3.44 0-6.87-.28-10.3-.18-1.8 0-3.7.18-5.5.18-.41 0-.68-.09-.68-.45.09-.55.54-.46 2-1.19 1.17-.54 1.27-1.82 1.27-3.95V7.85c0-2 0-4.22-2.45-4.59C1 3.18 0 3.09 0 2.56 0 2.2.27 2 1.58 2c8.53 0 10.88.2 12.78.2.9 0 5-.2 6.46-.2.36 0 .44.45.44 1 0 5-.63 5.41-.9 5.41-1.09 0-.36-2.18-1.09-3.22-1.16-1.55-5.85-1.28-7.67-1.28-4.34 0-4.25-.18-4.25 2.85z"/>
      <path fill="#231f20" d="M201.63 5h13.77v3.19h-10v9.41h9.58v3.22h-9.58v10.51H216v3.22h-14.37zm19.79 12.6q0-1.19-.06-2.35t-.11-2.31h3.43l.13 3.22h.08a5.86 5.86 0 0 1 2.2-2.69 5.91 5.91 0 0 1 3.14-.83 5.43 5.43 0 0 1 5.1 3.36 6.89 6.89 0 0 1 2.12-2.5 5.33 5.33 0 0 1 3.14-.89 6.26 6.26 0 0 1 4.53 1.67q1.74 1.67 1.74 5.23v15h-3.56V19.72a4.58 4.58 0 0 0-.85-3.05 3.08 3.08 0 0 0-2.46-1A3.66 3.66 0 0 0 237 17a6.77 6.77 0 0 0-1 4.22v13.34h-3.56V19.72a4.58 4.58 0 0 0-.85-3.05 3.08 3.08 0 0 0-2.46-1A3.66 3.66 0 0 0 226 17a6.77 6.77 0 0 0-1 4.22v13.34h-3.56zm29.12 6.15a17.75 17.75 0 0 1 .55-4.6 9.9 9.9 0 0 1 1.65-3.5 7.51 7.51 0 0 1 2.71-2.22 9.46 9.46 0 0 1 7.54 0 7.53 7.53 0 0 1 2.71 2.22 9.93 9.93 0 0 1 1.65 3.5 17.79 17.79 0 0 1 .55 4.6 17.78 17.78 0 0 1-.55 4.6 9.91 9.91 0 0 1-1.65 3.5 7.51 7.51 0 0 1-2.7 2.22 9.47 9.47 0 0 1-7.54 0 7.5 7.5 0 0 1-2.71-2.23 9.88 9.88 0 0 1-1.65-3.5 17.75 17.75 0 0 1-.56-4.59zm3.73 0a12.45 12.45 0 0 0 1.21 6.17 4.45 4.45 0 0 0 7.5 0 12.44 12.44 0 0 0 1.21-6.17 12.44 12.44 0 0 0-1.19-6.17 4.45 4.45 0 0 0-7.5 0 12.45 12.45 0 0 0-1.23 6.17zm17.33-6.15q0-1.19-.06-2.35t-.11-2.31h3.43l.13 3.39h.08a5.76 5.76 0 0 1 2.29-2.84 7.58 7.58 0 0 1 3.86-.85v3.52a6.93 6.93 0 0 0-1.36-.13 4.05 4.05 0 0 0-3.39 1.76 8.86 8.86 0 0 0-1.31 5.32v11.45h-3.56zm15.7-4.66l4.83 17.63h.08l4.49-17.63h3.56l-6.31 22-1.18 4.06a8.44 8.44 0 0 1-2 3.88 4.65 4.65 0 0 1-3.3 1.12q-.64 0-1.29-.06a6.83 6.83 0 0 1-1.12-.19l.17-3.22a3.92 3.92 0 0 0 .89.32 4.85 4.85 0 0 0 1.06.11 2 2 0 0 0 1.34-.51 4.81 4.81 0 0 0 1-2.2l.85-3.31-6.82-22zM332 34a21 21 0 0 1-2.71.66 15.86 15.86 0 0 1-2.67.23 13.67 13.67 0 0 1-6-1.23 11.42 11.42 0 0 1-4.13-3.33 14 14 0 0 1-2.37-4.83 21.26 21.26 0 0 1-.76-5.74 19.18 19.18 0 0 1 1-6.25A13.69 13.69 0 0 1 317 8.75a11.9 11.9 0 0 1 4.15-3 13 13 0 0 1 5.3-1.06 17 17 0 0 1 3.09.28 9.5 9.5 0 0 1 2.5.78v3.63a10.12 10.12 0 0 0-5.55-1.48 8.75 8.75 0 0 0-3.5.72 8.48 8.48 0 0 0-2.99 2.12 10.49 10.49 0 0 0-2 3.45 13.67 13.67 0 0 0-.76 4.77 21.89 21.89 0 0 0 .57 5.21 11.42 11.42 0 0 0 1.76 4 8.22 8.22 0 0 0 3 2.56 9.09 9.09 0 0 0 4.2.91 10.84 10.84 0 0 0 2.8-.36 9.8 9.8 0 0 0 2.5-1zm3.81-10.25a17.75 17.75 0 0 1 .55-4.6 9.9 9.9 0 0 1 1.65-3.5 7.51 7.51 0 0 1 2.71-2.22 9.46 9.46 0 0 1 7.54 0 7.53 7.53 0 0 1 2.74 2.22 9.93 9.93 0 0 1 1.65 3.5 17.79 17.79 0 0 1 .55 4.6 17.78 17.78 0 0 1-.55 4.6 9.91 9.91 0 0 1-1.65 3.5 7.51 7.51 0 0 1-2.71 2.23 9.47 9.47 0 0 1-7.54 0 7.5 7.5 0 0 1-2.75-2.24 9.88 9.88 0 0 1-1.65-3.5 17.75 17.75 0 0 1-.54-4.59zm3.73 0a12.45 12.45 0 0 0 1.21 6.17 4.45 4.45 0 0 0 7.5 0 12.44 12.44 0 0 0 1.21-6.17 12.44 12.44 0 0 0-1.21-6.17 4.45 4.45 0 0 0-7.5 0 12.45 12.45 0 0 0-1.21 6.17zm17.97-6.15q0-1.19-.06-2.35t-.11-2.31h3.43l.13 3.22h.1a5.86 5.86 0 0 1 2.2-2.69 6.15 6.15 0 0 1 3.26-.83 6.32 6.32 0 0 1 4.54 1.68q1.74 1.67 1.74 5.23v15h-3.56V20.61a6.13 6.13 0 0 0-.91-3.75 3.16 3.16 0 0 0-2.65-1.17 4.14 4.14 0 0 0-3.35 1.46 6.68 6.68 0 0 0-1.23 4.39v13h-3.56zm30.17 16.7a12.74 12.74 0 0 1-1.46.38 7.72 7.72 0 0 1-1.55.17 5.47 5.47 0 0 1-3.73-1.12q-1.27-1.12-1.27-4V15.82h-3.43v-2.88h3.43V8.53l3.56-1.06v5.47h4.45v2.88h-4.45v12.76a5 5 0 0 0 .51 2.63 1.93 1.93 0 0 0 1.74.76 3.76 3.76 0 0 0 1.19-.17q.51-.17 1-.38zM395.61 4v4.28h-3.9V4zm-3.73 8.9h3.56v21.66h-3.56zm9.53 4.7q0-1.19-.06-2.35t-.11-2.31h3.43l.13 3.22h.08a5.86 5.86 0 0 1 2.2-2.69 6.15 6.15 0 0 1 3.26-.83 6.32 6.32 0 0 1 4.58 1.67q1.74 1.67 1.74 5.23v15h-3.56V20.61a6.13 6.13 0 0 0-.91-3.75 3.16 3.16 0 0 0-2.65-1.17 4.14 4.14 0 0 0-3.35 1.46 6.68 6.68 0 0 0-1.19 4.39v13h-3.56zm35.16 12.29q0 1.19.06 2.35t.11 2.31h-3.43l-.13-3.22h-.08a5.86 5.86 0 0 1-2.2 2.69 6.15 6.15 0 0 1-3.26.83 6.32 6.32 0 0 1-4.64-1.67q-1.74-1.67-1.74-5.23v-15h3.56v13.93a6.12 6.12 0 0 0 .91 3.75 3.16 3.16 0 0 0 2.65 1.17 4.14 4.14 0 0 0 3.35-1.46A6.69 6.69 0 0 0 433 26V13h3.56zM446.66 4v4.28h-3.9V4zm-3.73 8.9h3.56v21.66h-3.56zm9.91 4.7q0-1.19-.06-2.35t-.11-2.31h3.43l.13 3.22h.08a5.86 5.86 0 0 1 2.2-2.69 6.15 6.15 0 0 1 3.26-.83 6.32 6.32 0 0 1 4.58 1.67q1.74 1.67 1.74 5.23v15h-3.56V20.61a6.13 6.13 0 0 0-.91-3.75A3.16 3.16 0 0 0 461 15.7a4.14 4.14 0 0 0-3.35 1.46 6.68 6.68 0 0 0-1.23 4.39v13h-3.56zm35.88 17.89a8.74 8.74 0 0 1-.78 3.86 7.52 7.52 0 0 1-2.06 2.65 8.44 8.44 0 0 1-2.95 1.5 12.29 12.29 0 0 1-3.45.49 12.57 12.57 0 0 1-1.53-.11q-.85-.11-1.72-.3t-1.67-.42a12 12 0 0 1-1.4-.49l.17-3.6a11.7 11.7 0 0 0 2.8 1.31 10 10 0 0 0 3.14.55q3.26 0 4.66-1.76a7.1 7.1 0 0 0 1.4-4.56v-3.4h-.08q-2.08 3.65-5.68 3.64a6.42 6.42 0 0 1-5.4-2.75q-2.06-2.75-2.06-8.35t2.1-8.37a6.84 6.84 0 0 1 5.74-2.73 5.32 5.32 0 0 1 3 .93 7.25 7.25 0 0 1 2.29 2.5h.08l.13-3.14h3.43q0 1-.11 2t-.06 2zm-13.06-11.74a13 13 0 0 0 1.14 6.17 4.18 4.18 0 0 0 7.2 0 13 13 0 0 0 1.14-6.17 13 13 0 0 0-1.14-6.17 4.18 4.18 0 0 0-7.2 0 13 13 0 0 0-1.14 6.17zM506.09 5h13.77v3.19h-10v9.41h9.58v3.22h-9.58v10.51h10.6v3.22h-14.37zm34.71 25.57q0 1 .06 2t.11 2h-3.43l-.13-3.18h-.08a8.37 8.37 0 0 1-.83 1.25 6 6 0 0 1-1.19 1.12 5.8 5.8 0 0 1-1.59.81 6.59 6.59 0 0 1-2.08.3 6.42 6.42 0 0 1-5.4-2.75q-2.06-2.75-2.06-8.35t2.06-8.35a6.43 6.43 0 0 1 5.4-2.75 6 6 0 0 1 3.14.76 7.54 7.54 0 0 1 2.37 2.5h.08V2.77h3.56zm-3.56-6.82a13 13 0 0 0-1.14-6.17 4.18 4.18 0 0 0-7.2 0 13 13 0 0 0-1.14 6.17 13 13 0 0 0 1.14 6.17 4.18 4.18 0 0 0 7.2 0 13 13 0 0 0 1.14-6.17zm23.86 6.14q0 1.19.06 2.35t.11 2.31h-3.43l-.13-3.22h-.08a5.86 5.86 0 0 1-2.2 2.69 6.15 6.15 0 0 1-3.26.83 6.32 6.32 0 0 1-4.58-1.67q-1.74-1.67-1.74-5.23v-15h3.56v13.93a6.12 6.12 0 0 0 .91 3.75A3.16 3.16 0 0 0 553 31.8a4.14 4.14 0 0 0 3.35-1.46 6.69 6.69 0 0 0 1.19-4.34V13h3.56zm18.1-13.18a8.45 8.45 0 0 0-1.91-.76 8.77 8.77 0 0 0-2.2-.25 5.35 5.35 0 0 0-4.28 1.95q-1.65 2-1.65 6.32a9.16 9.16 0 0 0 1.61 5.81 5.14 5.14 0 0 0 4.24 2 7.8 7.8 0 0 0 2.35-.34 13.53 13.53 0 0 0 2-.81l.17 3.26a13.21 13.21 0 0 1-2.08.64 10.83 10.83 0 0 1-2.46.3 9.82 9.82 0 0 1-4.22-.85 8.36 8.36 0 0 1-3-2.31 9.87 9.87 0 0 1-1.77-3.43 14.92 14.92 0 0 1-.59-4.28 15.77 15.77 0 0 1 .66-4.73 10 10 0 0 1 1.93-3.55 8.32 8.32 0 0 1 3-2.25 10 10 0 0 1 4-.78 12.74 12.74 0 0 1 2.27.21 7.56 7.56 0 0 1 2 .64zm5.15-2.29a11.89 11.89 0 0 1 2.92-1.31 11.1 11.1 0 0 1 3.18-.47 9 9 0 0 1 2.14.23 10.1 10.1 0 0 1 1.67.55 7.23 7.23 0 0 1 1.21.66 5.58 5.58 0 0 1 .74.59 7.13 7.13 0 0 1 1.29 1.86 8 8 0 0 1 .57 3.43v13.13q0 .84.13 1.46H595l-.21-2.92h-.08a7.16 7.16 0 0 1-2.16 2.22 6.76 6.76 0 0 1-3.9 1 6.54 6.54 0 0 1-4.45-1.55 5.87 5.87 0 0 1-1.78-4.68 7.53 7.53 0 0 1 .55-2.9 5.78 5.78 0 0 1 1.76-2.31 8.79 8.79 0 0 1 3.14-1.53 17.43 17.43 0 0 1 4.73-.55h2.08v-1a10.83 10.83 0 0 0-.15-2 3.85 3.85 0 0 0-.66-1.48 3.05 3.05 0 0 0-1.53-1 6.68 6.68 0 0 0-2.08-.32 8.13 8.13 0 0 0-3.14.61 6.69 6.69 0 0 0-2.42 1.63zM594.69 24a6.59 6.59 0 0 0-1.14-.08h-1.36a7 7 0 0 0-4.66 1.31 4.33 4.33 0 0 0-.64 5.93 3.47 3.47 0 0 0 2.75 1 4.76 4.76 0 0 0 2.08-.44 4.94 4.94 0 0 0 1.59-1.19 5.32 5.32 0 0 0 1-1.74 6.13 6.13 0 0 0 .36-2.1zm18.05 10.3a12.74 12.74 0 0 1-1.46.38 7.72 7.72 0 0 1-1.55.17 5.47 5.47 0 0 1-3.73-1.12q-1.27-1.12-1.27-4V15.82h-3.43v-2.88h3.43V8.53l3.56-1.06v5.47h4.45v2.88h-4.45v12.76a5 5 0 0 0 .51 2.63 1.93 1.93 0 0 0 1.74.76 3.76 3.76 0 0 0 1.19-.17q.51-.17 1-.38zM621.16 4v4.28h-3.9V4zm-3.73 8.9H621v21.66h-3.56zm7.65 10.85a17.75 17.75 0 0 1 .55-4.6 9.9 9.9 0 0 1 1.65-3.5 7.51 7.51 0 0 1 2.72-2.22 9.46 9.46 0 0 1 7.54 0 7.53 7.53 0 0 1 2.71 2.22 9.93 9.93 0 0 1 1.65 3.5 17.79 17.79 0 0 1 .55 4.6 17.78 17.78 0 0 1-.55 4.6 9.91 9.91 0 0 1-1.65 3.5 7.51 7.51 0 0 1-2.71 2.23 9.47 9.47 0 0 1-7.54 0 7.5 7.5 0 0 1-2.71-2.23 9.88 9.88 0 0 1-1.65-3.5 17.75 17.75 0 0 1-.56-4.6zm3.73 0a12.45 12.45 0 0 0 1.19 6.17 4.45 4.45 0 0 0 7.5 0 12.44 12.44 0 0 0 1.21-6.17 12.44 12.44 0 0 0-1.21-6.17 4.45 4.45 0 0 0-7.5 0 12.45 12.45 0 0 0-1.19 6.17zm17.52-6.15q0-1.19-.06-2.35t-.11-2.31h3.43l.13 3.22h.08a5.86 5.86 0 0 1 2.2-2.69 6.15 6.15 0 0 1 3.26-.83 6.32 6.32 0 0 1 4.58 1.67q1.74 1.67 1.74 5.23v15H658V20.61a6.13 6.13 0 0 0-.91-3.75 3.16 3.16 0 0 0-2.65-1.17 4.14 4.14 0 0 0-3.35 1.46 6.68 6.68 0 0 0-1.23 4.39v13h-3.56z"/>
    </g>
  </g>
</svg>