<svg xmlns="http://www.w3.org/2000/svg" viewBox="0 0 475 61">
  <g data-name="Layer 2">
    <g fill="#fff" data-name="Layer 1">
      <path d="M263.19 59.8V.36h1.15V59.8h-1.15zM286.9 2.69h9.61v2.67h-6.26v4.86h5.92v2.67h-5.92v5.38h6.52v2.67h-9.87zm12.28 6.98a21.38 21.38 0 0 0-.1-2.2h3.25c0 .71.11 1.41.11 2.12h.05a3.75 3.75 0 0 1 3.4-2.33 3.49 3.49 0 0 1 3.4 2.14 4.18 4.18 0 0 1 3.61-2.14c2.93 0 3.87 2.09 3.87 5.36v8.31h-3.25v-8.5c0-1.67-.52-2.51-1.73-2.51-1.44 0-2.2 1.36-2.2 2.85v8.16h-3.25v-8.5c0-1.67-.52-2.51-1.73-2.51-1.44 0-2.2 1.36-2.2 2.85v8.16h-3.25zm26.04-2.4c2.75 0 5.92 1.44 5.92 6.93 0 5.65-3.17 7-5.92 7s-5.94-1.31-5.94-7c0-5.5 3.19-6.93 5.94-6.93zm0 11.58c2.09 0 2.57-2.4 2.57-4.65s-.47-4.63-2.57-4.63-2.59 2.38-2.59 4.63.5 4.65 2.59 4.65zm8.06-9.15a18.49 18.49 0 0 0-.1-2.22h2.93c0 .81.1 1.65.1 2.46h.05a3.76 3.76 0 0 1 3.43-2.67 3.49 3.49 0 0 1 .55.08v3a3.41 3.41 0 0 0-.92-.13c-1.33 0-2.8.81-2.8 3.32v7.37h-3.25zm14.41 7.94h.05l2.59-10.17h3.14l-4.92 16c-.58 1.86-1.68 3.24-3.85 3.24a6.64 6.64 0 0 1-2.07-.34l.18-2.48a3.41 3.41 0 0 0 1.23.26c1 0 1.39-.58 1.81-2l.24-1.15-4.47-13.52H345zm25.24 2.9a10.11 10.11 0 0 1-4 .65c-5.55 0-8.4-4.05-8.4-9.38s2.85-9.38 8.3-9.38a11.59 11.59 0 0 1 4.06.76l-.18 3a7 7 0 0 0-3.45-1c-2.77 0-5.16 1.88-5.16 6.61s2.38 6.61 5.16 6.61a5.68 5.68 0 0 0 3.45-.94zm7.51-13.27c2.75 0 5.92 1.44 5.92 6.93 0 5.65-3.17 7-5.92 7s-5.94-1.31-5.94-7c0-5.5 3.19-6.93 5.94-6.93zm0 11.58c2.09 0 2.56-2.4 2.56-4.65s-.47-4.63-2.56-4.63-2.59 2.38-2.59 4.63.49 4.65 2.59 4.65zm8.23-9.15a18.26 18.26 0 0 0-.1-2.22h3c0 .68.1 1.39.1 2.06h.05a3.93 3.93 0 0 1 3.59-2.27c3.06 0 4 2.27 4 5v8.68h-3.25v-8.09c0-2.06-.52-2.93-1.86-2.93-1.7 0-2.3 1.44-2.3 3.16v7.84h-3.25zm14.26-5l3.25-1v3.78h2.69v2.37h-2.69v7c0 1.44.52 1.86 1.47 1.86a2.55 2.55 0 0 0 1.23-.29v2.3a5 5 0 0 1-2.17.44c-2.41 0-3.77-1.1-3.77-3.92V9.85h-2.15V7.48h2.15zM411 1.75h3.35v3.19H411zm0 5.73h3.25v13.46H411zm6.24 2.22a18.28 18.28 0 0 0-.1-2.22h3c0 .68.1 1.39.1 2.06h.05a3.93 3.93 0 0 1 3.59-2.27c3.06 0 4 2.27 4 5v8.68h-3.25v-8.09c0-2.06-.52-2.93-1.86-2.93-1.7 0-2.3 1.44-2.3 3.16v7.84h-3.25zm23.99 9.02a18.27 18.27 0 0 0 .1 2.22h-3c0-.68-.1-1.39-.1-2.07h-.08a3.92 3.92 0 0 1-3.58 2.27c-3.06 0-4-2.27-4-5V7.48h3.25v8.08c0 2.07.58 2.93 1.94 2.93 1.73 0 2.23-1.57 2.23-3.29V7.48h3.25zm2.94-16.97h3.35v3.19h-3.35zm.05 5.72h3.25v13.47h-3.25zm6.24 2.23a18.28 18.28 0 0 0-.1-2.22h3c0 .68.1 1.39.1 2.06h.05a3.93 3.93 0 0 1 3.59-2.27c3.06 0 4 2.27 4 5v8.68h-3.25v-8.09c0-2.06-.52-2.93-1.86-2.93-1.7 0-2.3 1.44-2.3 3.16v7.84h-3.25zM464.22 23a8.56 8.56 0 0 0 4 1.15c3.06 0 3.56-2.12 3.56-4.24v-1.25h-.05a3.69 3.69 0 0 1-3.56 2.27c-1.88 0-4.71-1.25-4.71-6.69 0-3.71 1.34-7 4.87-7a3.85 3.85 0 0 1 3.56 2.3h.11c0-.71.08-1.39.1-2.09h2.9c-.05.71-.1 1.41-.1 2.12v9.93c0 4.21-1.28 7.21-6.23 7.21a13.61 13.61 0 0 1-4.67-.81zm4.69-4.47c2 0 2.85-1.46 2.85-4.52 0-2.82-1.07-4.34-2.62-4.31-1.7 0-2.36 1.59-2.36 4.34 0 3.18 1.02 4.52 2.12 4.52zM286.9 30.46h9.61v2.67h-6.26V38h5.92v2.67h-5.92V46h6.52v2.67h-9.87zm23.16-1.36v17.3a17.28 17.28 0 0 0 .1 2.3h-3a18.08 18.08 0 0 1-.1-2.09h-.08a3.63 3.63 0 0 1-3.59 2.3c-3.35 0-4.74-3.19-4.74-6.93 0-4.39 1.75-7 4.66-7a3.62 3.62 0 0 1 3.48 2.14h.05V29.1zm-5.81 17.44c1.91 0 2.56-2.07 2.56-4.6s-.73-4.52-2.51-4.52-2.43 1.75-2.43 4.44c0 3.14.49 4.68 2.38 4.68zm19.19-.05a18.27 18.27 0 0 0 .1 2.22h-3c0-.68-.11-1.39-.11-2.07h-.08a3.93 3.93 0 0 1-3.59 2.27c-3.06 0-4-2.27-4-5v-8.66H316v8.08c0 2.07.58 2.93 1.94 2.93 1.73 0 2.22-1.57 2.22-3.29v-7.72h3.25zm11.85 1.88a9.22 9.22 0 0 1-3.19.55c-4.45 0-6.33-3.11-6.33-6.93s2-7 6.52-7a8.87 8.87 0 0 1 2.83.55l-.18 2.56a5.2 5.2 0 0 0-2.28-.65c-2.46 0-3.53 1.65-3.53 4.52 0 2.51 1.2 4.44 3.69 4.44a5.21 5.21 0 0 0 2.3-.65zM338 36a9.4 9.4 0 0 1 4.27-1c4.19 0 5.16 2 5.16 5.41v5.88a16.7 16.7 0 0 0 .18 2.38h-2.93a6.65 6.65 0 0 1-.18-1.83h-.05a4.33 4.33 0 0 1-3.77 2 3.87 3.87 0 0 1-4-3.95c0-3.66 3-4.57 7.09-4.57h.65v-.5a2.32 2.32 0 0 0-2.51-2.56 6.23 6.23 0 0 0-3.69 1.31zm6.39 6.09H344c-2.77 0-4.42.58-4.42 2.54a2 2 0 0 0 2.07 2.07c1.94 0 2.64-1.44 2.64-3.84zm6.4-9.61l3.24-1v3.76h2.7v2.38H354v7c0 1.44.52 1.86 1.47 1.86a2.55 2.55 0 0 0 1.23-.29v2.3a5 5 0 0 1-2.17.44c-2.41 0-3.77-1.1-3.77-3.92v-7.39h-2.15v-2.37h2.15zm8.02-2.96h3.35v3.19h-3.35zm.05 5.72h3.25v13.47h-3.25zm11.82-.24c2.75 0 5.92 1.44 5.92 6.93 0 5.65-3.17 7-5.92 7s-5.94-1.31-5.94-7c0-5.46 3.19-6.93 5.94-6.93zm0 11.58c2.09 0 2.56-2.4 2.56-4.65s-.47-4.63-2.56-4.63-2.59 2.38-2.59 4.63.49 4.69 2.59 4.69zm8.23-9.11a18.28 18.28 0 0 0-.1-2.22h3c0 .68.1 1.39.1 2.07h.09a3.93 3.93 0 0 1 3.58-2.32c3.06 0 4 2.27 4 5v8.68h-3.25v-8.05c0-2.06-.52-2.93-1.86-2.93-1.7 0-2.3 1.44-2.3 3.16v7.84h-3.25zM89.48 51.36c0 3 1.95 4.36 4.47 4.36 3.52 0 4.32-2.32 4.32-4.53v-6.06c0-1.9-1.74-1.13-1.74-1.83 0-.09.13-.18.19-.18.73 0 1.46.06 2.19.06.36 0 .69-.06 1-.06.09 0 .24.09.24.2 0 .51-1.11.11-1.11 1.82v5.8c0 .92.23 5.54-5.21 5.54-4.92 0-5.85-2.75-5.85-5.63v-6.3c0-1.1-1.52-.65-1.52-1.24 0-.13.32-.18.41-.18.49 0 1 .06 1.46.06s1.2-.06 1.78-.06c.1 0 .6 0 .6.18 0 .51-1.25 0-1.25 1.34zm17.79-4.55c0-3.89-2.27-2.8-2.27-3.5 0-.11.19-.18.28-.18.3 0 .58.06.88.06s.58-.06.86-.06.37.3.49.43l8.94 9.94c.11.13.18.21.22.21s.06-.06.06-.21v-7.83c0-2.45-2.08-1.74-2.08-2.36a.18.18 0 0 1 .2-.18c.56 0 1.1.06 1.71.06s1.44-.06 1.89-.06c.11 0 .19.05.19.17 0 .49-1.1.15-1.1 1.51v10.84c0 .54 0 .81-.17.81s-.32-.1-.71-.52l-8.06-9.07s-.26-.35-.39-.35-.13.05-.13.43v7.64c0 1.68 1.64 1 1.64 1.53 0 .09 0 .24-.2.24-.45 0-1-.07-1.89-.07-.65 0-1.63.07-1.76.07s-.24-.11-.24-.21c0-.65 1.65.17 1.65-2.45zm18.97-2.08c0-1.37-1.51-1-1.51-1.4 0-.17 0-.21.19-.21.69 0 1.37.06 2.06.06s1.16-.06 1.74-.06c.3 0 .36 0 .36.18 0 .45-1.35 0-1.35 1.42v10c0 1.27 1.67.84 1.67 1.4 0 .14-.06.19-.37.19s-1.24-.07-2-.07c-1.14 0-1.54.07-1.8.07s-.39-.09-.39-.28c0-.54 1.46.07 1.46-1.77zm9-.16c-.47-1.13-1.45-.77-1.45-1.18a.24.24 0 0 1 .26-.26c.58 0 1.16.06 1.72.06s1.22-.06 1.48-.06c.11 0 .27.08.27.19s-.77.29-.77 1a2.08 2.08 0 0 0 .17.73l3.28 7.71c.41 1 .54 1.42.75 1.42s.24-.3.34-.52l3.26-8a2.78 2.78 0 0 0 .26-1.27c0-.86-1.2-.5-1.2-.94 0-.19.09-.24.28-.24.41 0 .82.06 1.23.06.9 0 1.18-.06 1.44-.06s.32.08.32.24c0 .42-.53-.05-1.05 1.2l-4.66 11c-.21.46-.34 1.08-.62 1.08s-.53-.78-.69-1.18zm33.86-.14c0-.73.4-.69 1.07-.69 1.84 0 3.59.77 3.59 3a2.45 2.45 0 0 1-2.61 2.66c-.88 0-2.05.09-2.05-.26zm3.7 5.16a3.62 3.62 0 0 0 2.36-3.24c0-3.6-4.15-3.22-4.44-3.22-1 0-2 .06-3.13.06s-.86-.06-1.2-.06-.37.11-.37.22c0 .63 1.61-.13 1.61 1.66v9.51c0 1.42-1.37 1.16-1.37 1.63a.19.19 0 0 0 .19.21c.71 0 1.43-.06 2.14-.06 1.56 0 2 .06 2.15.06s.32 0 .32-.15c0-.64-2-.06-2-1.67V50.6c0-.19-.11-.52.49-.52 2.1 0 1.82-.06 2.49 1l2.08 3.27c.71 1.06 1.44 2 2.81 2 .17 0 1.22 0 1.22-.23 0-.45-.92.24-2.26-1.82zm9.02 3.41c-.07-.38 0-.58.21-.58s.27.22.37.62a4 4 0 0 0 3.93 2.81c1.8 0 3.55-1 3.55-3 0-3.6-7.64-1.58-7.64-6.46 0-2.38 2-3.52 4.17-3.52a6.67 6.67 0 0 1 3.17.68c.17 0 .21-.21.39-.21s.2.06.22.27l.27 2.54c0 .15 0 .28-.2.28s-.33-.39-.39-.56a3.6 3.6 0 0 0-3.6-2.43c-1.49 0-3.07.71-3.07 2.43 0 3.51 7.64 1.46 7.64 6.62 0 1.57-1.09 3.93-5.37 3.93-1.4 0-3.1-.7-3.17-1zM198 44.73c0-1.37-1.52-1-1.52-1.4 0-.17 0-.21.19-.21.69 0 1.37.06 2.05.06s1.16-.06 1.74-.06c.3 0 .36 0 .36.18 0 .45-1.35 0-1.35 1.42v10c0 1.27 1.67.84 1.67 1.4 0 .14-.06.19-.38.19s-1.24-.07-2-.07c-1.14 0-1.53.07-1.79.07s-.4-.09-.4-.28c0-.54 1.46.07 1.46-1.77zm12.91.27c0-.14.08-.84-.19-.86h-3.05c-1.17 0-1.2.28-1.54 1.31-.06.19-.07.43-.31.43s-.19-.13-.19-.23l.21-1.81c0-.22 0-.72.34-.72 1.46 0 2.91.06 5.32.06 3.39 0 5.11-.06 5.49-.06s.53.11.55.54l.09 1.49c0 .18 0 .41-.21.41-.7 0 .32-1.42-1.59-1.42h-2.68c-.84 0-.75-.08-.75.91v9.55c0 1.57 1.52 1 1.52 1.53 0 .06 0 .23-.17.23-.45 0-1-.07-1.52-.07-2.1 0-2.45.07-2.56.07s-.23-.05-.23-.24c0-.45 1.48-.26 1.48-1.38zm11.6-.7c-.49-.8-1.41-.58-1.41-.9a.28.28 0 0 1 .24-.28c.51 0 .87.06 2.14.06.62 0 1.12-.06 1.32-.06s.35 0 .35.19-.88.33-.88.88a1.5 1.5 0 0 0 .33.76l2.27 3.61c.15.23.26.34.37.34s.2-.13.35-.38l1.93-3.12a1.75 1.75 0 0 0 .39-1c0-.92-1.4-.53-1.4-1 0-.24.19-.28.4-.28.45 0 .92.06 1.37.06s1.08-.06 1.63-.06a.24.24 0 0 1 .21.22c0 .21-.32.28-.45.36a3.52 3.52 0 0 0-1.05 1.3L228 49.07c-.3.47-.45.56-.45.84v4.58c0 1.63 1.54 1.1 1.54 1.68 0 .17-.16.19-.43.19s-1.37-.07-2.06-.07c-.85 0-1.52.07-1.69.07s-.28 0-.28-.23c0-.52 1.45 0 1.45-1.36v-4.53a1.91 1.91 0 0 0-.43-1zm-68.32 4.17c0 .64 0 .64.71.64h2c1.94 0 1.44-1.5 1.88-1.5.15 0 .2.21.2.36v3.37c0 .17-.07.24-.2.24-.57 0 .06-1.64-1.51-1.64h-2.76c-.4 0-.34.32-.34.6V54c0 1.1-.15 1.55 1.42 1.55 4.31 0 4.94-1.92 5.19-1.92s.15.19.15.23a2.94 2.94 0 0 1-.94 1.81c-.6.66-1 .63-1.82.63-1.42 0-2.84-.1-4.26-.07-.75 0-1.53.07-2.28.07-.17 0-.28 0-.28-.19s.23-.19.82-.48.53-.75.53-1.62v-8.58c0-.85 0-1.75-1-1.9-.15 0-.56-.07-.56-.28s.11-.22.66-.22c3.53 0 4.5.06 5.29.06.38 0 2.09-.06 2.66-.06.15 0 .19.19.19.41 0 2.08-.27 2.23-.37 2.23-.45 0-.15-.9-.45-1.33-.48-.64-2.42-.53-3.17-.53-1.8 0-1.76-.07-1.76 1.18zm10.64-44.93c8.81 0 14.37 8 14.37 16.18s-5.29 13.61-11.88 13.61c-8.94 0-14.41-8.07-14.41-16.41-.01-7.11 4.33-13.38 11.92-13.38zm.59 31.16c10.07 0 17.06-6.55 17.06-16.69 0-9.33-7.08-16-16.29-16s-16.56 6.81-16.56 16.2 5.98 16.5 15.79 16.5zm26.17-29.13c0-1.71.92-1.62 2.5-1.62 4.31 0 8.38 1.79 8.38 7.14s-4.21 6.21-6.1 6.21c-2.06 0-4.78.21-4.78-.61zm8.64 12.08a8.46 8.46 0 0 0 5.54-7.57c0-8.46-9.71-7.58-10.41-7.58-2.29 0-4.78.18-7.3.18a24.19 24.19 0 0 1-2.81-.18c-.53 0-.87.26-.87.53 0 1.49 3.76-.31 3.76 3.9V29.2c0 3.33-3.2 2.72-3.2 3.82a.46.46 0 0 0 .44.48c1.67 0 3.32-.18 5-.18 3.64 0 4.64.18 5 .18s.74.09.74-.35c0-1.49-4.56-.13-4.56-3.91V20c0-.44-.27-1.23 1.13-1.23 4.92 0 4.27-.13 5.84 2.32l4.88 7.68c1.67 2.5 3.38 4.74 6.58 4.74.4 0 3.87 0 3.87-.53 0-1.06-3.17.57-6.32-4.26zM213 5.25c-1.14-1.89-3.29-1.36-3.29-2.1a.67.67 0 0 1 .58-.66c1.18 0 2 .19 5 .19 1.44 0 2.63-.19 3.07-.19s.83 0 .83.44c0 .74-2.05.78-2.05 2.06a3.57 3.57 0 0 0 .79 1.79l5.29 8.46c.35.52.61.79.87.79s.47-.31.82-.88l4.51-7.32a4.13 4.13 0 0 0 .92-2.41c0-2.15-3.28-1.23-3.28-2.28 0-.57.43-.66.91-.66 1 0 2.15.19 3.2.19 1.27 0 2.54-.19 3.8-.19a.56.56 0 0 1 .48.53c0 .48-.74.66-1.05.83a8.31 8.31 0 0 0-2.45 3l-6.13 9.55c-.7 1.09-1.05 1.31-1.05 2v10.74c0 3.81 3.59 2.59 3.59 3.94 0 .39-.4.44-1 .44s-3.2-.19-4.81-.19c-2 0-3.54.19-3.93.19s-.65 0-.65-.52c0-1.23 3.37-.09 3.37-3.2V19.18a4.59 4.59 0 0 0-1-2.23zm-68.38 24.21c.22 3.67 3.46 2.05 3.46 3.59 0 .44-.57.44-1 .44-.83 0-2.37-.19-4.11-.19-1.35 0-2.76.19-3.79.19-.39 0-.48-.22-.48-.4 0-1.31 2.76-.35 2.71-3.58l-1.19-17c0-1.1-.22-1.71-.48-1.71s-.71.39-1.15 1.31l-9.12 18.49c-.22.39-.92 2.19-1.36 2.19s-.74-1-.88-1.27L117.9 12c-.14-.35-.36-.48-.53-.48s-.26.22-.3.66l-1.28 15.35c-.22 5.81 3.93 3.89 3.93 5.47 0 .44-.48.48-1.1.48s-2.54-.19-3.83-.19c-2.28 0-3 .19-3.87.19-.31 0-.44-.22-.44-.53 0-1.49 2.8.31 3.1-4.25.53-7.14 1.06-11.79 1.06-16.43 0-10.3-3.39-7.84-3.39-9.33 0-.39.34-.48.74-.48.79 0 1.58.19 2.41.19s1.57-.19 2.34-.19c.62 0 .7.74.92 1.23l10.46 22.25c.49.92.66 1.31 1 1.31s.65-.92 1.36-2.37L140.91 4c.25-.48.6-1.53 1.12-1.49s1.83.19 2 .19c1 0 1.41-.19 2.1-.19a.49.49 0 0 1 .44.52c0 1.4-3.51-.48-3.33 4.73zM91.36 15.27c0 1.49-.08 1.49 1.66 1.49h4.72c4.54 0 3.37-3.51 4.41-3.51.35 0 .48.48.48.83 0 1.54-.06 3-.06 4.41 0 1.14.06 2.28.06 3.46 0 .4-.17.57-.48.57-1.35 0 .13-3.86-3.53-3.86h-6.47c-.92 0-.79.75-.79 1.4v8.06c0 2.59-.35 3.64 3.33 3.64 10.09 0 11.57-4.51 12.14-4.51.3 0 .35.44.35.52 0 1.58-1.13 3.11-2.18 4.25-1.4 1.59-2.37 1.5-4.27 1.5-3.33 0-6.64-.27-10-.18-1.74 0-3.58.18-5.32.18-.4 0-.66-.09-.66-.44.08-.53.53-.44 1.93-1.15 1.13-.52 1.23-1.75 1.23-3.81v-20c0-2 0-4.08-2.37-4.43-.35-.09-1.31-.17-1.31-.68 0-.35.26-.52 1.53-.52 8.25 0 10.52.19 12.36.19.87 0 4.88-.19 6.24-.19.35 0 .43.44.43 1 0 4.86-.61 5.22-.87 5.22-1.05 0-.35-2.1-1.05-3.11-1.13-1.49-5.67-1.23-7.42-1.23-4.2 0-4.11-.18-4.11 2.76zM27.6 59.13C-1.17 45.84 2.28 16.16 2.29 2.28l50.92.05C53.2 16.21 56.4 45.9 27.6 59.13zM2.29 0L.09 2.3C.07 4 0 6 0 7.08-.19 23.38.92 48.73 27.48 61 41.53 54.5 52.17 43.33 55 26c1.63-10 .65-19.56.66-26z"/>
      <path d="M16.73 36.44L12 41.49c-.16.17-.17.34-.08.44a1.55 1.55 0 0 0 .41.36c.13 0 .22.08.43-.15s2.33-2.26 5-4.81a2.78 2.78 0 0 1-.5-.34 5.54 5.54 0 0 1-.53-.55zm1.36-.58a8.25 8.25 0 0 0 1.37 1l-.47.45c-.18.19-.83-.11-1.47-.67s-1-1.19-.83-1.38l.52-.47a6.3 6.3 0 0 0 .88 1.07zm23.26 5.6a1.39 1.39 0 0 0 .44-.81l.46.23c.13.14 0 .68-.41 1.1s-1 .56-1.14.41l-.24-.49a1.35 1.35 0 0 0 .89-.44zm-.69-.74a1.37 1.37 0 0 0 .37-.58l.3.21c.1.1 0 .44-.3.74s-.74.41-.84.3l-.19-.33a1.78 1.78 0 0 0 .66-.34zm1.41-23.22l-.54.48c-.74.29-2.42-1-3.75-2.16-.89-.78-2.66-2.73-2.16-3.52l.22-.23-.4-.23a1 1 0 0 0-.57-.11c-.21 0-.38.11-.4.28a2.85 2.85 0 0 0 .45 1.38 14.17 14.17 0 0 0 3.61 3.93 10.78 10.78 0 0 0 3 1.62c.15.06.68.17.91-.06s0-.64-.2-1a2.49 2.49 0 0 0-.17-.38zM19 9.21v.54A16.22 16.22 0 0 0 22.05 18c2.23 2.78 9 10.78 10 12.05s7.6 8.89 8.43 9.87l.09.1a1 1 0 0 1-.29.37.89.89 0 0 1-.43.18l-.2-.2c-.22-.29-11.65-11.68-12.73-12.75s-7-6.74-9.4-8.29c-2.09-1.34-3-2.09-5.35-2.28a13.8 13.8 0 0 1-1.75-.14v-.1a18.92 18.92 0 0 0 5-3.36 15 15 0 0 0 3.35-4.2c.07-.08.23-.09.23-.04zm1.61 9.64c-2.37-2.35-3.27-2.9-4.34-3.36a3 3 0 0 0-1.27-.34 5.61 5.61 0 0 0-1.59.86c-.31.28-.28.41-.11.5a16 16 0 0 1 2.47.94c1.92 1 5.52 3.53 13.38 11.64 4 4.12 10.27 10.5 10.27 10.5l.16-.13s-9.14-10.23-16.27-17.8c-1.04-1.09-1.93-2.01-2.72-2.8z"/>
      <path d="M13.55 14a14 14 0 0 1-3.49 2.14c-.72.3-1.75 0-1-1.43a11.14 11.14 0 0 1 1-1.53 21.17 21.17 0 0 1 6.2-5.34 4.41 4.41 0 0 1 1.69-.63c.59 0 .62.53.51 1-.26 1.03-1.98 3.33-4.91 5.79zm.73-1.33a27.94 27.94 0 0 0 2-2.13 10.6 10.6 0 0 0 1.29-1.87 1.15 1.15 0 0 0 .11-.47c0-.15-.17-.21-.23-.26a9.35 9.35 0 0 0-3 1.69 2.67 2.67 0 0 0-.4.82c-.08.26.6 1 .15 2.08-.1.15.04.17.08.13zm12.47 15.6l-7.88 7.55c.11.11.42.33.42.33s6.8-6.53 7.31-7l.55-.5zm13.96-8.74h.31a.77.77 0 0 0 .28-.06c.06 0 .1-.12 0-.12a5 5 0 0 1-1.69-.52 13.11 13.11 0 0 0-2 .68c-1.07.48-3.41 1.88-8.19 6.26l.37.43a57.66 57.66 0 0 1 5.09-4.24 15.73 15.73 0 0 1 4.72-2.26 8.16 8.16 0 0 1 1.11-.17zM36 16a7.19 7.19 0 0 1-1.9-3v-.07h-.08A.38.38 0 0 0 34 13a8.79 8.79 0 0 1-.58 3.45 15.9 15.9 0 0 1-2.58 4.14c-.7.81-1.88 2.14-3 3.38l.76.9.59-.64a58.59 58.59 0 0 1 8-7.15A14.87 14.87 0 0 1 36 16zM25.22 26.88c-1.54 1.74-3.09 3.45-3.54 3.95s-3.75 4-3.75 4a1.5 1.5 0 0 0 .19.26c.1.12.28.28.28.28L26 27.6zm12.11-15.62v-.16c-.37-.1-.65-.09-.8.07-.46.5.56 2.2 2.29 3.8s3.51 2.49 4 2c.19-.2.13-.6-.12-1.1-2.52.29-5.37-3.01-5.37-4.61z"/>
      <path d="M45.13 11.9c-.24.28-.66.93-.91 1.16.27-.24.42-.82.13-2.34a8.39 8.39 0 0 0-.48-1.77c-.08-.2-.2-.15-.34 0a5.5 5.5 0 0 0-.47.74c0 .13 0 0-.5-1.54a7.09 7.09 0 0 1-.44-2v-.51c0-.12-.06-.12-.37 0a5.38 5.38 0 0 0-2 2.38c-.31.8-.34 1.46-.39 1.06-.09-.78-.08-.77-.16-.75a2.93 2.93 0 0 0-2 2.9c0 1.76 3.31 5.49 6 4.65 0 0 2-.39 2.08-2.23s-.15-1.75-.15-1.75zm-.67 2.28a2.46 2.46 0 0 1-1.06.92 3.22 3.22 0 0 1-1.93.19 6.46 6.46 0 0 1-3.18-2.64C36.72 10.12 38.81 9 39 9a3.43 3.43 0 0 0-.08 1.39 8.17 8.17 0 0 0 .52 1.18 1.16 1.16 0 0 1-.2 1.13c-.07.09.11 0 .16 0l.12-.1a1 1 0 0 0 .47-.9c-.18-.78-.74-1.27-.08-2.88a6.78 6.78 0 0 1 1.44-2c.15-.1.24-.23.25-.12s.17.83.26 1.3a7 7 0 0 1 .51 2.75c-.12 1.33-2.29 2.78-2.59 2.87a1.25 1.25 0 0 0-.29.16c-.08.07 0 .09.09.1a4.21 4.21 0 0 0 1.78-.71 5.16 5.16 0 0 0 1.42-1.47 8.48 8.48 0 0 0 .6-1.79c.06-.15.13-.15.15-.07s.17.66.23 1a6 6 0 0 1 .13 1.13 2 2 0 0 1-.87 1.9 2.06 2.06 0 0 1-1.1.39h-.14c-.06 0-.11 0 0 .09l.14.06a1.84 1.84 0 0 0 1.47-.14 4.89 4.89 0 0 0 .85-.68c.14-.13.33-.38.35-.3a1.54 1.54 0 0 1-.13.89z"/>
    </g>
  </g>
</svg>
