<?xml version="1.0" encoding="utf-8"?>
<!-- Generator: Adobe Illustrator 22.1.0, SVG Export Plug-In . SVG Version: 6.00 Build 0)  -->
<!DOCTYPE svg PUBLIC "-//W3C//DTD SVG 1.1//EN" "http://www.w3.org/Graphics/SVG/1.1/DTD/svg11.dtd">
<svg version="1.1" id="Layer_1" xmlns="http://www.w3.org/2000/svg" xmlns:xlink="http://www.w3.org/1999/xlink" x="0px" y="0px"
	 width="661.6px" height="44px" viewBox="0 0 661.6 44" style="enable-background:new 0 0 661.6 44;" xml:space="preserve">
<style type="text/css">
	.st0{fill:#012169;}
</style>
<g>
	<g>
		<rect x="177.8" y="0.1" width="1.2" height="35.7"/>
		<path class="st0" d="M83.4,3.1c9.1,0,14.8,8.2,14.8,16.7S92.8,33.9,86,33.9c-9.2,0-14.9-8.3-14.9-17C71.1,9.6,75.6,3.1,83.4,3.1
			 M84,35.3c10.4,0,17.6-6.8,17.6-17.2c0-9.6-7.3-16.5-16.8-16.5s-17.1,7-17.1,16.7S73.9,35.3,84,35.3 M111.5,5.2
			c0-1.8,0.9-1.7,2.6-1.7c4.4,0,8.6,1.9,8.6,7.4s-4.3,6.4-6.3,6.4c-2.1,0-4.9,0.2-4.9-0.6V5.2z M120.4,17.7c3.3-1.2,5.6-4.3,5.7-7.8
			c0-8.7-10-7.8-10.7-7.8c-2.4,0-4.9,0.2-7.5,0.2c-1,0-1.9-0.1-2.9-0.2c-0.5,0-0.9,0.3-0.9,0.5c0,1.5,3.9-0.3,3.9,4v23
			c0,3.4-3.3,2.8-3.3,4c0,0.3,0.2,0.5,0.4,0.5c0,0,0,0,0,0c1.7,0,3.4-0.2,5.1-0.2c3.8,0,4.8,0.2,5.2,0.2c0.4,0,0.8,0.1,0.8-0.4
			c0-1.5-4.7-0.1-4.7-4v-9.6c0-0.5-0.3-1.3,1.2-1.3c5.1,0,4.4-0.1,6,2.4l5,7.9c1.7,2.6,3.5,4.9,6.8,4.9c0.4,0,4,0,4-0.5
			c0-1.1-3.3,0.6-6.5-4.4L120.4,17.7z M133.6,4.9c-1.2-2-3.4-1.4-3.4-2.2c0-0.3,0.3-0.6,0.6-0.7c1.2,0,2.1,0.2,5.1,0.2
			c1.5,0,2.7-0.2,3.2-0.2c0.4,0,0.9,0,0.9,0.5c0,0.8-2.1,0.8-2.1,2.1c0.1,0.7,0.4,1.3,0.8,1.9l5.5,8.7c0.4,0.5,0.6,0.8,0.9,0.8
			s0.5-0.3,0.8-0.9l4.7-7.6c0.6-0.7,0.9-1.6,1-2.5c0-2.2-3.4-1.3-3.4-2.3c0-0.6,0.4-0.7,0.9-0.7c1.1,0,2.2,0.2,3.3,0.2
			c1.3,0,2.6-0.2,3.9-0.2c0.3,0,0.5,0.3,0.5,0.5c0,0.5-0.8,0.7-1.1,0.9c-1.1,0.8-1.9,1.9-2.5,3.1l-6.3,9.9c-0.7,1.1-1.1,1.4-1.1,2
			v11.1c0,3.9,3.7,2.7,3.7,4.1c0,0.4-0.4,0.4-1,0.4c-0.6,0-3.3-0.2-5-0.2c-2,0-3.7,0.2-4.1,0.2s-0.7,0-0.7-0.5
			c0-1.3,3.5-0.1,3.5-3.3v-11c-0.1-0.8-0.5-1.6-1-2.3L133.6,4.9z M63.1,29.9c0.2,3.8,3.6,2.1,3.6,3.7c0,0.4-0.6,0.4-1.1,0.4
			c-0.9,0-2.4-0.2-4.2-0.2c-1.4,0-2.8,0.2-3.9,0.2c-0.4,0-0.5-0.2-0.5-0.4c0-1.4,2.8-0.4,2.8-3.7l-1.2-17.5c0-1.1-0.2-1.8-0.5-1.8
			S57.3,11,56.8,12l-9.4,19.1c-0.2,0.4-1,2.3-1.4,2.3s-0.8-1-0.9-1.3l-9.6-20.2c-0.1-0.4-0.4-0.5-0.5-0.5s-0.3,0.2-0.3,0.7
			l-1.3,15.9c-0.2,6,4.1,4,4.1,5.6c0,0.5-0.5,0.5-1.1,0.5c-0.6,0-2.6-0.2-4-0.2c-2.3,0-3.1,0.2-4,0.2c-0.3,0-0.4-0.2-0.4-0.5
			c0-1.5,2.9,0.3,3.2-4.4c0.5-7.4,1.1-12.2,1.1-17c0-10.6-3.5-8.1-3.5-9.6C28.6,2.1,29,2,29.4,2c0.8,0,1.6,0.2,2.5,0.2
			S33.5,2,34.3,2c0.6,0,0.7,0.8,1,1.3l10.8,22.9c0.5,1,0.7,1.4,1,1.4c0.3,0,0.7-0.9,1.4-2.4L59.2,3.5C59.5,3.1,59.9,2,60.4,2
			c0.5,0,1.9,0.2,2.1,0.2c1,0,1.4-0.2,2.2-0.2c0.3,0,0.5,0.3,0.4,0.5c0,1.5-3.6-0.5-3.4,4.9L63.1,29.9z M8.1,15.2
			c0,1.5-0.1,1.5,1.7,1.5h4.9c4.7,0,3.5-3.6,4.5-3.6c0.4,0,0.5,0.5,0.5,0.9c0,1.6-0.1,3.1-0.1,4.6c0,1.2,0.1,2.4,0.1,3.6
			c0,0.4-0.2,0.6-0.5,0.6c-1.4,0,0.1-4-3.6-4H8.9c-1,0-0.8,0.8-0.8,1.4v8.3c0,2.7-0.4,3.8,3.4,3.8c10.4,0,12-4.7,12.5-4.7
			c0.3,0,0.4,0.5,0.4,0.5c0,1.6-1.2,3.2-2.3,4.4c-1.4,1.6-2.4,1.5-4.4,1.5c-3.4,0-6.9-0.3-10.3-0.2c-1.8,0-3.7,0.2-5.5,0.2
			c-0.4,0-0.7-0.1-0.7-0.4c0.1-0.5,0.5-0.5,2-1.2c1.2-0.5,1.3-1.8,1.3-3.9V7.9c0-2,0-4.2-2.4-4.6C1.8,3.2,0.8,3.1,0.8,2.6
			C0.8,2.2,1.1,2,2.4,2c8.5,0,10.9,0.2,12.7,0.2c0.9,0,5-0.2,6.4-0.2C21.9,2,22,2.5,22,3c0,5-0.6,5.4-0.9,5.4
			c-1.1,0-0.4-2.2-1.1-3.2C18.9,3.7,14.2,4,12.4,4C8,4,8.1,3.8,8.1,6.8L8.1,15.2z"/>
		<path d="M201.9,5h13.7v3.2h-10v9.4h9.6v3.2h-9.6v10.5h10.6v3.2h-14.3V5z M221.7,17.6c0-0.8,0-1.6-0.1-2.3c0-0.8-0.1-1.5-0.1-2.3
			h3.4l0.1,3.2h0.1c0.4-1.1,1.2-2,2.2-2.7c0.9-0.6,2-0.8,3.1-0.8c2.2,0,4.2,1.3,5.1,3.4c0.5-1,1.2-1.8,2.1-2.5
			c0.9-0.6,2-0.9,3.1-0.9c1.7-0.1,3.3,0.5,4.5,1.7c1.2,1.1,1.7,2.8,1.7,5.2v15h-3.6V19.7c0.1-1.1-0.2-2.2-0.8-3
			c-0.6-0.7-1.5-1.1-2.5-1c-1.1-0.1-2.3,0.4-3,1.3c-0.8,1.3-1.1,2.7-1,4.2v13.3h-3.6V19.7c0.1-1.1-0.2-2.2-0.8-3
			c-0.6-0.7-1.5-1.1-2.5-1c-1.2-0.1-2.4,0.4-3.1,1.3c-0.8,1.3-1.1,2.7-1,4.2v13.3h-3.6L221.7,17.6z M250.7,23.7
			c0-1.5,0.2-3.1,0.5-4.6c0.3-1.3,0.9-2.4,1.6-3.5c0.7-0.9,1.6-1.7,2.7-2.2c2.4-1,5.1-1,7.5,0c1.1,0.5,2,1.3,2.7,2.2
			c0.8,1,1.3,2.2,1.6,3.5c0.4,1.5,0.6,3,0.5,4.6c0,1.5-0.2,3.1-0.5,4.6c-0.3,1.3-0.9,2.4-1.6,3.5c-0.7,0.9-1.6,1.7-2.7,2.2
			c-2.4,1-5.1,1-7.5,0c-1.1-0.5-2-1.3-2.7-2.2c-0.8-1-1.3-2.2-1.6-3.5C250.9,26.8,250.7,25.3,250.7,23.7z M254.5,23.7
			c-0.1,2.1,0.3,4.2,1.2,6.2c1.3,2.1,4.1,2.7,6.1,1.4c0.5-0.3,1-0.8,1.4-1.4c0.9-1.9,1.3-4,1.2-6.2c0.1-2.1-0.3-4.2-1.2-6.2
			c-1.3-2.1-4.1-2.7-6.1-1.4c-0.5,0.3-1,0.8-1.4,1.4C254.8,19.5,254.3,21.6,254.5,23.7z M271.7,17.6c0-0.8,0-1.6-0.1-2.3
			c0-0.8-0.1-1.5-0.1-2.3h3.4l0.1,3.4h0.1c0.4-1.2,1.2-2.2,2.3-2.8c1.2-0.6,2.5-0.9,3.9-0.8v3.5c-0.4-0.1-0.9-0.1-1.4-0.1
			c-1.3,0-2.6,0.6-3.4,1.8c-1,1.6-1.4,3.4-1.3,5.3v11.4h-3.6V17.6z M287.4,13l4.8,17.6h0.1l4.5-17.6h3.6L294,34.9l-1.2,4.1
			c-0.3,1.4-1,2.8-2,3.9c-0.9,0.8-2.1,1.2-3.3,1.1c-0.4,0-0.9,0-1.3-0.1c-0.4,0-0.8-0.1-1.1-0.2l0.2-3.2c0.3,0.1,0.6,0.2,0.9,0.3
			c0.3,0.1,0.7,0.1,1.1,0.1c0.5,0,1-0.2,1.3-0.5c0.5-0.6,0.9-1.4,1-2.2l0.8-3.3L283.7,13L287.4,13z M332,34
			c-0.9,0.3-1.8,0.5-2.7,0.7c-0.9,0.2-1.8,0.2-2.7,0.2c-2.1,0-4.1-0.4-6-1.2c-1.6-0.8-3-1.9-4.1-3.3c-1.1-1.4-1.9-3.1-2.4-4.8
			c-0.5-1.9-0.8-3.8-0.8-5.7c0-2.1,0.3-4.2,1-6.2c0.6-1.7,1.4-3.4,2.6-4.7c1.1-1.3,2.6-2.3,4.1-3c1.7-0.7,3.5-1.1,5.3-1.1
			c1,0,2.1,0.1,3.1,0.3c0.9,0.1,1.7,0.4,2.5,0.8v3.6c-1.7-1-3.6-1.5-5.5-1.5c-1.2,0-2.4,0.2-3.5,0.7c-1.1,0.5-2.2,1.2-3,2.1
			c-0.9,1-1.6,2.2-2,3.4c-0.5,1.5-0.8,3.1-0.8,4.8c0,1.7,0.2,3.5,0.6,5.2c0.3,1.4,0.9,2.8,1.8,4c0.8,1.1,1.8,2,3,2.6
			c1.3,0.6,2.7,0.9,4.2,0.9c0.9,0,1.9-0.1,2.8-0.4c0.9-0.2,1.7-0.6,2.5-1L332,34z M335.8,23.7c0-1.5,0.2-3.1,0.5-4.6
			c0.3-1.3,0.9-2.4,1.6-3.5c0.7-0.9,1.6-1.7,2.7-2.2c2.4-1,5.1-1,7.5,0c1.1,0.5,2,1.3,2.7,2.2c0.8,1,1.3,2.2,1.6,3.5
			c0.4,1.5,0.6,3,0.5,4.6c0,1.5-0.2,3.1-0.5,4.6c-0.3,1.3-0.9,2.4-1.6,3.5c-0.7,0.9-1.6,1.7-2.7,2.2c-2.4,1-5.1,1-7.5,0
			c-1.1-0.5-2-1.3-2.7-2.2c-0.8-1-1.3-2.2-1.6-3.5C336,26.8,335.8,25.3,335.8,23.7L335.8,23.7z M339.5,23.7
			c-0.1,2.1,0.3,4.2,1.2,6.2c1.3,2.1,4.1,2.7,6.1,1.4c0.5-0.3,1-0.8,1.4-1.4c0.9-1.9,1.3-4,1.2-6.2c0.1-2.1-0.3-4.2-1.2-6.2
			c-1.3-2.1-4.1-2.7-6.1-1.4c-0.5,0.3-1,0.8-1.4,1.4C339.8,19.5,339.4,21.6,339.5,23.7z M357.4,17.6c0-0.8,0-1.6-0.1-2.3
			c0-0.8-0.1-1.5-0.1-2.3h3.4l0.1,3.2h0.1c0.4-1.1,1.2-2,2.2-2.7c1-0.6,2.1-0.9,3.3-0.8c1.7-0.1,3.3,0.5,4.5,1.7
			c1.2,1.1,1.7,2.8,1.7,5.2v15h-3.6V20.6c0.1-1.3-0.2-2.6-0.9-3.7c-0.6-0.8-1.6-1.2-2.6-1.2c-1.3-0.1-2.5,0.5-3.3,1.5
			c-0.9,1.3-1.3,2.8-1.2,4.4v13h-3.6L357.4,17.6z M387.5,34.3c-0.5,0.2-1,0.3-1.5,0.4c-0.5,0.1-1,0.2-1.5,0.2
			c-1.3,0.1-2.7-0.3-3.7-1.1c-0.8-0.7-1.3-2.1-1.3-4V15.8h-3.4V13h3.4V8.6l3.6-1.1V13h4.4v2.9h-4.4v12.7c-0.1,0.9,0.1,1.8,0.5,2.6
			c0.4,0.5,1.1,0.8,1.7,0.8c0.4,0,0.8,0,1.2-0.2c0.3-0.1,0.7-0.2,1-0.4L387.5,34.3z M395.5,4v4.3h-3.9V4H395.5z M391.7,12.9h3.6
			v21.6h-3.6V12.9z M401.2,17.6c0-0.8,0-1.6-0.1-2.3s-0.1-1.5-0.1-2.3h3.4l0.1,3.2h0.1c0.4-1.1,1.2-2,2.2-2.7c1-0.6,2.1-0.9,3.3-0.8
			c1.7-0.1,3.3,0.5,4.6,1.7c1.2,1.1,1.7,2.8,1.7,5.2v15h-3.6V20.6c0.1-1.3-0.2-2.6-0.9-3.7c-0.6-0.8-1.6-1.2-2.6-1.2
			c-1.3-0.1-2.5,0.5-3.3,1.5c-0.9,1.3-1.3,2.8-1.2,4.4v13h-3.6L401.2,17.6z M436.3,29.9c0,0.8,0,1.6,0.1,2.3c0,0.8,0.1,1.5,0.1,2.3
			h-3.4l-0.1-3.2h-0.1c-0.4,1.1-1.2,2-2.2,2.7c-1,0.6-2.1,0.9-3.3,0.8c-1.7,0.1-3.4-0.5-4.6-1.7c-1.2-1.1-1.7-2.8-1.7-5.2V13h3.6
			v13.9c-0.1,1.3,0.2,2.6,0.9,3.7c0.6,0.8,1.6,1.2,2.6,1.2c1.3,0.1,2.5-0.5,3.3-1.5c0.9-1.3,1.4-2.8,1.3-4.3V13h3.6L436.3,29.9z
			 M446.4,4v4.3h-3.9V4H446.4z M442.7,12.9h3.6v21.6h-3.6V12.9z M452.5,17.6c0-0.8,0-1.6-0.1-2.3c0-0.8-0.1-1.5-0.1-2.3h3.4l0.1,3.2
			h0.1c0.4-1.1,1.2-2,2.2-2.7c1-0.6,2.1-0.9,3.3-0.8c1.7-0.1,3.3,0.5,4.6,1.7c1.2,1.1,1.7,2.8,1.7,5.2v15h-3.6V20.6
			c0.1-1.3-0.2-2.6-0.9-3.7c-0.6-0.8-1.6-1.2-2.6-1.2c-1.3-0.1-2.5,0.5-3.3,1.5c-0.9,1.3-1.3,2.8-1.2,4.4v13h-3.6L452.5,17.6z
			 M488.3,35.5c0,1.3-0.2,2.6-0.8,3.9c-0.5,1-1.2,1.9-2.1,2.6c-0.9,0.7-1.9,1.2-2.9,1.5c-1.1,0.3-2.3,0.5-3.4,0.5
			c-0.5,0-1,0-1.5-0.1c-0.6-0.1-1.1-0.2-1.7-0.3c-0.6-0.1-1.1-0.3-1.7-0.4c-0.5-0.1-0.9-0.3-1.4-0.5L473,39c0.9,0.6,1.8,1,2.8,1.3
			c1,0.3,2.1,0.5,3.1,0.5c2.2,0,3.7-0.6,4.6-1.8c1-1.3,1.5-2.9,1.4-4.5v-3.4h-0.1c-1.4,2.4-3.3,3.6-5.7,3.6c-2.1,0-4.2-1-5.4-2.7
			c-1.4-1.8-2.1-4.6-2.1-8.3s0.7-6.5,2.1-8.4c1.3-1.8,3.5-2.8,5.7-2.7c1.1,0,2.1,0.3,3,0.9c0.9,0.6,1.7,1.5,2.3,2.5h0.1l0.1-3.1h3.4
			c0,0.7,0,1.3-0.1,2c-0.1,0.7-0.1,1.3-0.1,2L488.3,35.5z M475.3,23.7c-0.1,2.1,0.3,4.2,1.1,6.2c1.2,2,3.7,2.6,5.7,1.5
			c0.6-0.4,1.1-0.9,1.5-1.5c0.9-1.9,1.3-4,1.1-6.2c0.1-2.1-0.3-4.2-1.1-6.2c-1.2-2-3.7-2.6-5.7-1.5c-0.6,0.4-1.1,0.9-1.5,1.5
			C475.6,19.5,475.2,21.6,475.3,23.7z M505.7,5h13.7v3.2h-10v9.4h9.6v3.2h-9.6v10.5H520v3.2h-14.3L505.7,5z M540.3,30.5
			c0,0.7,0,1.3,0.1,2c0,0.7,0.1,1.3,0.1,2H537l-0.1-3.2h-0.1c-0.2,0.4-0.5,0.9-0.8,1.2c-0.3,0.4-0.7,0.8-1.2,1.1
			c-0.5,0.3-1,0.6-1.6,0.8c-0.7,0.2-1.4,0.3-2.1,0.3c-2.1,0-4.2-1-5.4-2.7c-1.4-1.8-2.1-4.6-2.1-8.3s0.7-6.5,2.1-8.3
			c1.2-1.8,3.2-2.8,5.4-2.7c1.1,0,2.2,0.2,3.1,0.8c1,0.6,1.8,1.5,2.4,2.5h0.1V2.8h3.6L540.3,30.5z M536.7,23.7
			c0.1-2.1-0.3-4.2-1.1-6.2c-1.2-2-3.7-2.6-5.7-1.5c-0.6,0.4-1.1,0.9-1.5,1.5c-0.9,1.9-1.3,4-1.1,6.2c-0.1,2.1,0.3,4.2,1.1,6.2
			c1.2,2,3.7,2.6,5.7,1.5c0.6-0.4,1.1-0.9,1.5-1.5C536.5,28,536.9,25.9,536.7,23.7z M560.5,29.9c0,0.8,0,1.6,0.1,2.3
			s0.1,1.5,0.1,2.3h-3.4l-0.1-3.2h-0.1c-0.4,1.1-1.2,2-2.2,2.7c-1,0.6-2.1,0.9-3.3,0.8c-1.7,0.1-3.3-0.5-4.6-1.7
			c-1.2-1.1-1.7-2.8-1.7-5.2V13h3.6v13.9c-0.1,1.3,0.2,2.6,0.9,3.7c0.6,0.8,1.6,1.2,2.7,1.2c1.3,0.1,2.5-0.5,3.3-1.5
			c0.9-1.3,1.3-2.8,1.2-4.3V13h3.6V29.9z M578.6,16.7c-0.6-0.3-1.2-0.6-1.9-0.8c-0.7-0.2-1.5-0.3-2.2-0.2c-1.6,0-3.2,0.7-4.3,1.9
			c-1.1,1.3-1.6,3.4-1.6,6.3c-0.1,2.1,0.4,4.1,1.6,5.8c1,1.3,2.6,2,4.2,2c0.8,0,1.6-0.1,2.3-0.3c0.7-0.2,1.4-0.5,2-0.8l0.2,3.3
			c-0.7,0.3-1.4,0.5-2.1,0.6c-0.8,0.2-1.6,0.3-2.5,0.3c-1.4,0-2.9-0.3-4.2-0.8c-1.2-0.5-2.2-1.3-3-2.3c-0.8-1-1.4-2.2-1.8-3.4
			c-0.4-1.4-0.6-2.8-0.6-4.3c0-1.6,0.2-3.2,0.7-4.7c0.4-1.3,1-2.5,1.9-3.5c0.8-1,1.8-1.7,3-2.2c1.3-0.5,2.6-0.8,4-0.8
			c0.8,0,1.5,0.1,2.3,0.2c0.7,0.1,1.4,0.3,2,0.6L578.6,16.7z M583.7,14.4c0.9-0.6,1.9-1,2.9-1.3c1-0.3,2.1-0.5,3.2-0.5
			c0.7,0,1.4,0.1,2.1,0.2c0.6,0.1,1.1,0.3,1.7,0.5c0.4,0.2,0.8,0.4,1.2,0.7c0.3,0.2,0.5,0.4,0.7,0.6c0.5,0.5,1,1.2,1.3,1.9
			c0.4,1.1,0.6,2.3,0.6,3.4v13.1c0,0.6,0,1,0.1,1.5h-3.2l-0.2-2.9h-0.1c-0.5,0.9-1.3,1.6-2.2,2.2c-1.2,0.7-2.5,1.1-3.9,1
			c-1.6,0.1-3.2-0.5-4.4-1.5c-1.3-1.2-1.9-2.9-1.8-4.7c0-1,0.2-2,0.5-2.9c0.4-0.9,1-1.7,1.8-2.3c0.9-0.7,2-1.2,3.1-1.5
			c1.5-0.4,3.1-0.6,4.7-0.5h2.1v-1c0-0.7,0-1.3-0.1-2c-0.1-0.5-0.3-1-0.7-1.5c-0.4-0.5-0.9-0.8-1.5-1c-0.7-0.2-1.4-0.3-2.1-0.3
			c-1.1,0-2.1,0.2-3.1,0.6c-0.9,0.4-1.7,0.9-2.4,1.6L583.7,14.4z M594.1,24c-0.4-0.1-0.8-0.1-1.1-0.1h-1.4c-1.7-0.1-3.3,0.3-4.6,1.3
			c-1.8,1.5-2,4.1-0.6,5.9c0.7,0.7,1.7,1.1,2.7,1c0.7,0,1.4-0.1,2.1-0.4c0.6-0.3,1.1-0.7,1.6-1.2c0.4-0.5,0.8-1.1,1-1.7
			c0.2-0.7,0.4-1.4,0.4-2.1L594.1,24z M612.1,34.3c-0.5,0.2-1,0.3-1.5,0.4c-0.5,0.1-1,0.2-1.5,0.2c-1.3,0.1-2.7-0.3-3.7-1.1
			c-0.8-0.7-1.3-2.1-1.3-4V15.8h-3.4V13h3.4V8.6l3.6-1.1V13h4.4v2.9h-4.4v12.7c-0.1,0.9,0.1,1.8,0.5,2.6c0.4,0.5,1.1,0.8,1.7,0.8
			c0.4,0,0.8,0,1.2-0.2c0.3-0.1,0.7-0.2,1-0.4L612.1,34.3z M620.5,4v4.3h-3.9V4H620.5z M616.7,12.9h3.6v21.6h-3.6L616.7,12.9z
			 M624.4,23.7c0-1.5,0.2-3.1,0.5-4.6c0.3-1.3,0.9-2.4,1.6-3.5c0.7-0.9,1.6-1.7,2.7-2.2c2.4-1,5.1-1,7.5,0c1.1,0.5,2,1.3,2.7,2.2
			c0.8,1,1.3,2.2,1.6,3.5c0.4,1.5,0.6,3,0.5,4.6c0,1.5-0.2,3.1-0.5,4.6c-0.3,1.3-0.9,2.4-1.6,3.5c-0.7,0.9-1.6,1.7-2.7,2.2
			c-2.4,1-5.1,1-7.5,0c-1.1-0.5-2-1.3-2.7-2.2c-0.8-1-1.3-2.2-1.6-3.5C624.5,26.8,624.4,25.3,624.4,23.7L624.4,23.7z M628.1,23.7
			c-0.1,2.1,0.3,4.2,1.2,6.2c1.3,2.1,4.1,2.7,6.1,1.4c0.5-0.3,1-0.8,1.4-1.4c0.9-1.9,1.3-4,1.2-6.2c0.1-2.1-0.3-4.2-1.2-6.2
			c-1.3-2.1-4.1-2.7-6.1-1.4c-0.5,0.3-1,0.8-1.4,1.4C628.4,19.5,628,21.6,628.1,23.7z M645.6,17.6c0-0.8,0-1.6-0.1-2.3
			c0-0.8-0.1-1.5-0.1-2.3h3.4l0.1,3.2h0.1c0.4-1.1,1.2-2,2.2-2.7c1-0.6,2.1-0.9,3.3-0.8c1.7-0.1,3.3,0.5,4.6,1.7
			c1.2,1.1,1.7,2.8,1.7,5.2v15h-3.6V20.6c0.1-1.3-0.2-2.6-0.9-3.7c-0.6-0.8-1.6-1.2-2.6-1.2c-1.3-0.1-2.5,0.5-3.3,1.5
			c-0.9,1.3-1.3,2.8-1.2,4.4v13h-3.6L645.6,17.6z"/>
	</g>
</g>
</svg>
