<svg xmlns="http://www.w3.org/2000/svg" viewBox="0 0 75 75">
  <path fill="#012169" d="M-19.83-19.5H95.5V95.83H-19.83z" data-name="Layer 2"/>
  <g fill="#fff" data-name="Layer 1">
    <path d="M37.21 63.28c-23.87-11-21-35.69-21-47.22h42.24c-.01 11.57 2.65 36.23-21.24 47.22zm-21-49.11l-1.82 1.91c0 1.38-.05 3.11-.06 4-.18 13.54.74 34.6 22.77 44.79 11.66-5.4 20.48-14.68 22.79-29.08 1.35-8.33.54-16.25.55-21.57z"/>
    <path d="M28.19 44.43l-3.93 4.2c-.13.14-.14.28-.07.37a1.32 1.32 0 0 0 .34.3c.11 0 .18.07.36-.13s1.93-1.88 4.13-4a2.26 2.26 0 0 1-.42-.29 4.57 4.57 0 0 1-.41-.45zm1.13-.43a7 7 0 0 0 1.13.82l-.39.37c-.15.16-.69-.09-1.22-.56s-.83-1-.69-1.14l.43-.39a5.24 5.24 0 0 0 .74.9zm19.3 4.6a1.15 1.15 0 0 0 .36-.67l.38.19c.11.12 0 .57-.34.91s-.84.46-1 .34l-.2-.41a1.11 1.11 0 0 0 .8-.36zM48 48a1.13 1.13 0 0 0 .3-.48l.25.17c.08.09 0 .37-.25.62s-.61.34-.69.25l-.15-.27A1.49 1.49 0 0 0 48 48zm1.21-19.3l-.45.4c-.61.23-2-.83-3.11-1.8-.74-.64-2.21-2.27-1.79-2.93l.19-.19-.33-.18a.82.82 0 0 0-.47-.09c-.17 0-.31.09-.33.24a2.39 2.39 0 0 0 .37 1.14 11.81 11.81 0 0 0 3 3.26 9 9 0 0 0 2.51 1.34c.12 0 .56.14.75-.05s0-.53-.17-.86a1.84 1.84 0 0 0-.17-.28zm-1.3 18.61l-7-8.2c-.89-1.05-6.47-7.7-8.31-10a13.51 13.51 0 0 1-2.55-6.83v-.45c0-.14-.12 0-.14 0a12.46 12.46 0 0 1-2.78 3.49 15.73 15.73 0 0 1-4.13 2.8s-.06.07 0 .09a12 12 0 0 0 1.45.12c1.91.16 2.7.78 4.44 1.89 2 1.29 6.87 6 7.79 6.89S47 47.45 47.22 47.68l.17.17a.74.74 0 0 0 .36-.15.78.78 0 0 0 .24-.31zM47 47s-5.21-5.3-8.52-8.72C32 31.59 29 29.51 27.37 28.66a13.41 13.41 0 0 0-2-.78c-.14-.08-.17-.18.09-.42a4.68 4.68 0 0 1 1.32-.72 2.43 2.43 0 0 1 1.05.3c.88.38 1.63.83 3.6 2.79.66.66 1.4 1.42 2.24 2.32 5.91 6.29 13.49 14.78 13.49 14.78z"/>
    <path d="M29.18 20.15a3.65 3.65 0 0 0-1.4.52 17.6 17.6 0 0 0-5.15 4.44 9.62 9.62 0 0 0-.81 1.27c-.61 1.16.24 1.43.84 1.19a11.61 11.61 0 0 0 2.9-1.78c2.43-2 3.85-4 4-4.81.13-.39.11-.8-.38-.83zm-.29 1.21a8.7 8.7 0 0 1-1.07 1.55 24.18 24.18 0 0 1-1.67 1.77s-.15 0-.1-.11c.37-.92-.19-1.52-.13-1.73a2.16 2.16 0 0 1 .33-.68 7.74 7.74 0 0 1 2.53-1.4s.18.09.19.22a1 1 0 0 1-.07.38zm7.61 16.29L30 43.91c.09.09.35.28.35.28s5.64-5.42 6.06-5.81l.45-.41zm11.58-7.27h.26a.75.75 0 0 0 .23 0c.05 0 .08-.1 0-.1a4.11 4.11 0 0 1-1.4-.43 10.82 10.82 0 0 0-1.65.57c-.89.4-2.83 1.56-6.8 5.2l.31.36a47.06 47.06 0 0 1 4.22-3.52 13 13 0 0 1 3.92-1.88 7 7 0 0 1 .91-.2zm-3.87-2.89a6 6 0 0 1-1.61-2.55v-.06h-.07a.44.44 0 0 0 0 .07 7.29 7.29 0 0 1-.53 2.9 13.26 13.26 0 0 1-2.14 3.44c-.58.67-1.56 1.78-2.46 2.81l.63.75.49-.53a48.77 48.77 0 0 1 6.61-5.94 11.62 11.62 0 0 1-.92-.89zm-8.97 9c-1.28 1.44-2.56 2.86-2.94 3.28l-3.11 3.36a1.3 1.3 0 0 0 .15.22c.09.1.23.23.23.23l6.31-6.48zm10.04-12.97v-.13c-.31-.08-.54-.07-.66.06-.38.41.47 1.83 1.9 3.16s2.91 2.07 3.29 1.66c.15-.17.11-.5-.1-.92-2.07.24-4.43-2.5-4.43-3.83z"/>
    <path d="M51.75 24.05c-.2.23-.55.77-.75 1 .22-.2.35-.68.11-1.95a6.92 6.92 0 0 0-.4-1.47c-.07-.17-.17-.13-.28 0a4.68 4.68 0 0 0-.39.61c0 .11 0 0-.41-1.28a5.91 5.91 0 0 1-.36-1.67v-.42c0-.11-.05-.1-.31 0a4.46 4.46 0 0 0-1.69 2c-.27.62-.27 1.13-.27.84-.08-.65-.07-.64-.13-.62a2.44 2.44 0 0 0-1.64 2.41c0 1.46 2.75 4.56 5 3.86 0 0 1.69-.32 1.73-1.85s-.21-1.46-.21-1.46zm-.56 1.89a2 2 0 0 1-.88.76 2.67 2.67 0 0 1-1.6.16 5.38 5.38 0 0 1-2.64-2.19c-1.3-2.1.44-3 .59-3a2.86 2.86 0 0 0-.07 1.16 6.83 6.83 0 0 0 .43 1 1 1 0 0 1-.17.93c-.06.08.09 0 .13 0l.1-.08a.79.79 0 0 0 .39-.75 2.67 2.67 0 0 1-.07-2.39 5.6 5.6 0 0 1 1.2-1.67c.12-.08.2-.19.21-.1s.14.69.22 1.08a5.82 5.82 0 0 1 .43 2.29c-.1 1.1-1.9 2.31-2.15 2.39a.88.88 0 0 0-.24.13c-.06.06 0 .08.07.08a3.53 3.53 0 0 0 1.48-.59 4.3 4.3 0 0 0 1.18-1.22 7.09 7.09 0 0 0 .5-1.49c.05-.13.1-.12.12-.05s.14.55.19.8a5.16 5.16 0 0 1 .11.94 1.69 1.69 0 0 1-.72 1.52 1.72 1.72 0 0 1-.91.32h-.12s-.09 0 0 .07h.12A1.51 1.51 0 0 0 50.3 26a4.14 4.14 0 0 0 .71-.57c.11-.11.27-.32.29-.25a1.28 1.28 0 0 1-.11.77z"/>
  </g>
</svg>
