<?xml version="1.0" encoding="utf-8"?>
<!-- Generator: Adobe Illustrator 22.1.0, SVG Export Plug-In . SVG Version: 6.00 Build 0)  -->
<!DOCTYPE svg PUBLIC "-//W3C//DTD SVG 1.1//EN" "http://www.w3.org/Graphics/SVG/1.1/DTD/svg11.dtd">
<svg version="1.1" id="Layer_1" xmlns="http://www.w3.org/2000/svg" xmlns:xlink="http://www.w3.org/1999/xlink" x="0px" y="0px"
	 width="20px" height="20px" viewBox="0 0 20 20" style="enable-background:new 0 0 20 20;" xml:space="preserve">
<style type="text/css">
	.st0{fill:#212529;}
</style>
<path class="st0" d="M15.5,20c-0.1,0-0.3-0.1-0.4-0.2l-5.6-6.6l-5.6,6.6c-0.2,0.2-0.5,0.2-0.7,0.1C3.1,19.8,3,19.6,3,19.5v-18
	C3,1.2,3.2,1,3.5,1h12C15.8,1,16,1.2,16,1.5v18C16,19.8,15.8,20,15.5,20z M9.5,12c0.1,0,0.3,0.1,0.4,0.2l5.1,6V2H4v16.1l5.1-6
	C9.2,12.1,9.4,12,9.5,12z"/>
</svg>
