<?xml version="1.0" encoding="utf-8"?>
<!-- Generator: Adobe Illustrator 22.1.0, SVG Export Plug-In . SVG Version: 6.00 Build 0)  -->
<!DOCTYPE svg PUBLIC "-//W3C//DTD SVG 1.1//EN" "http://www.w3.org/Graphics/SVG/1.1/DTD/svg11.dtd">
<svg version="1.1" id="Layer_1" xmlns="http://www.w3.org/2000/svg" xmlns:xlink="http://www.w3.org/1999/xlink" x="0px" y="0px"
	 width="20px" height="20px" viewBox="0 0 20 20" style="enable-background:new 0 0 20 20;" xml:space="preserve">
<style type="text/css">
	.st0{fill:#6558B1;}
</style>
<path class="st0" d="M18.5,5H14V3.5C14,2.7,13.3,2,12.5,2h-5C6.7,2,6,2.7,6,3.5V5H1.5C0.7,5,0,5.7,0,6.5v11C0,18.3,0.7,19,1.5,19h17
	c0.8,0,1.5-0.7,1.5-1.5v-11C20,5.7,19.3,5,18.5,5z M7,3.5C7,3.2,7.2,3,7.5,3h5C12.8,3,13,3.2,13,3.5V5H7V3.5z M1.5,6h17
	C18.8,6,19,6.2,19,6.5V14h-2v-0.5c0-0.3-0.2-0.5-0.5-0.5h-2c-0.3,0-0.5,0.2-0.5,0.5V14H6v-0.5C6,13.2,5.8,13,5.5,13h-2
	C3.2,13,3,13.2,3,13.5V14H1V6.5C1,6.2,1.2,6,1.5,6z M16,14v1h-1v-1H16z M5,14v1H4v-1H5z M18.5,18h-17C1.2,18,1,17.8,1,17.5V15h2v0.5
	C3,15.8,3.2,16,3.5,16h2C5.8,16,6,15.8,6,15.5V15h8v0.5c0,0.3,0.2,0.5,0.5,0.5h2c0.3,0,0.5-0.2,0.5-0.5V15h2v2.5
	C19,17.8,18.8,18,18.5,18z"/>
</svg>
