<?xml version="1.0" encoding="utf-8"?>
<!-- Generator: Adobe Illustrator 22.1.0, SVG Export Plug-In . SVG Version: 6.00 Build 0)  -->
<!DOCTYPE svg PUBLIC "-//W3C//DTD SVG 1.1//EN" "http://www.w3.org/Graphics/SVG/1.1/DTD/svg11.dtd">
<svg version="1.1" id="Layer_1" xmlns="http://www.w3.org/2000/svg" xmlns:xlink="http://www.w3.org/1999/xlink" x="0px" y="0px"
	 width="20px" height="20px" viewBox="0 0 20 20" style="enable-background:new 0 0 20 20;" xml:space="preserve">
<style type="text/css">
	.st0{fill:#FFFFFF;}
</style>
<path class="st0" d="M0.5,19c-0.2,0-0.4-0.1-0.5-0.4s0-0.4,0.2-0.6c1.7-1,2.4-2.5,2.6-3.2C1,13.5,0,11.5,0,9.5c0-1,0.3-2,0.8-3
	c0.5-0.9,1.2-1.7,2.1-2.4C4.6,2.8,7,2,9.5,2s4.9,0.8,6.7,2.2c0.9,0.7,1.6,1.5,2.1,2.4c0.5,0.9,0.8,1.9,0.8,3s-0.3,2-0.8,3
	c-0.5,0.9-1.2,1.7-2.1,2.4C14.4,16.2,12,17,9.5,17c-1,0-2-0.1-3-0.4c-0.4,0.3-1.2,0.8-2.2,1.3C2.8,18.6,1.5,19,0.5,19L0.5,19z
	 M9.5,3C4.8,3,1,5.9,1,9.5c0,1.8,1,3.6,2.8,4.8C3.9,14.4,4,14.6,4,14.8c-0.1,0.4-0.5,1.6-1.6,2.8c1.3-0.5,2.7-1.2,3.7-2
	c0.1-0.1,0.3-0.1,0.4-0.1c0.9,0.3,1.9,0.4,3,0.4c4.7,0,8.5-2.9,8.5-6.5S14.2,3,9.5,3z"/>
</svg>
