<?xml version="1.0" encoding="utf-8"?>
<!-- Generator: Adobe Illustrator 22.1.0, SVG Export Plug-In . SVG Version: 6.00 Build 0)  -->
<!DOCTYPE svg PUBLIC "-//W3C//DTD SVG 1.1//EN" "http://www.w3.org/Graphics/SVG/1.1/DTD/svg11.dtd">
<svg version="1.1" id="Layer_1" xmlns="http://www.w3.org/2000/svg" xmlns:xlink="http://www.w3.org/1999/xlink" x="0px" y="0px"
	 width="20px" height="20px" viewBox="0 0 20 20" style="enable-background:new 0 0 20 20;" xml:space="preserve">
<style type="text/css">
	.st0{fill:#212529;}
</style>
<path class="st0" d="M18.5,2H16V1.5C16,1.2,15.8,1,15.5,1S15,1.2,15,1.5V2H5V1.5C5,1.2,4.8,1,4.5,1S4,1.2,4,1.5V2H1.5
	C0.7,2,0,2.7,0,3.5v14C0,18.3,0.7,19,1.5,19h17c0.8,0,1.5-0.7,1.5-1.5v-14C20,2.7,19.3,2,18.5,2z M1.5,3H4v1.5C4,4.8,4.2,5,4.5,5
	S5,4.8,5,4.5V3h10v1.5C15,4.8,15.2,5,15.5,5S16,4.8,16,4.5V3h2.5C18.8,3,19,3.2,19,3.5V6H1V3.5C1,3.2,1.2,3,1.5,3z M18.5,18h-17
	C1.2,18,1,17.8,1,17.5V7h18v10.5C19,17.8,18.8,18,18.5,18z"/>
<path class="st0" d="M7.5,10h-1C6.2,10,6,9.8,6,9.5S6.2,9,6.5,9h1C7.8,9,8,9.2,8,9.5S7.8,10,7.5,10z M10.5,10h-1C9.2,10,9,9.8,9,9.5
	S9.2,9,9.5,9h1C10.8,9,11,9.2,11,9.5S10.8,10,10.5,10z M13.5,10h-1C12.2,10,12,9.8,12,9.5S12.2,9,12.5,9h1C13.8,9,14,9.2,14,9.5
	S13.8,10,13.5,10z M16.5,10h-1C15.2,10,15,9.8,15,9.5S15.2,9,15.5,9h1C16.8,9,17,9.2,17,9.5S16.8,10,16.5,10z M4.5,12h-1
	C3.2,12,3,11.8,3,11.5S3.2,11,3.5,11h1C4.8,11,5,11.2,5,11.5S4.8,12,4.5,12z M7.5,12h-1C6.2,12,6,11.8,6,11.5S6.2,11,6.5,11h1
	C7.8,11,8,11.2,8,11.5S7.8,12,7.5,12z M10.5,12h-1C9.2,12,9,11.8,9,11.5S9.2,11,9.5,11h1c0.3,0,0.5,0.2,0.5,0.5S10.8,12,10.5,12z
	 M13.5,12h-1c-0.3,0-0.5-0.2-0.5-0.5s0.2-0.5,0.5-0.5h1c0.3,0,0.5,0.2,0.5,0.5S13.8,12,13.5,12z M16.5,12h-1c-0.3,0-0.5-0.2-0.5-0.5
	s0.2-0.5,0.5-0.5h1c0.3,0,0.5,0.2,0.5,0.5S16.8,12,16.5,12z M4.5,14h-1C3.2,14,3,13.8,3,13.5S3.2,13,3.5,13h1C4.8,13,5,13.2,5,13.5
	S4.8,14,4.5,14z M7.5,14h-1C6.2,14,6,13.8,6,13.5S6.2,13,6.5,13h1C7.8,13,8,13.2,8,13.5S7.8,14,7.5,14z M10.5,14h-1
	C9.2,14,9,13.8,9,13.5S9.2,13,9.5,13h1c0.3,0,0.5,0.2,0.5,0.5S10.8,14,10.5,14z M13.5,14h-1c-0.3,0-0.5-0.2-0.5-0.5s0.2-0.5,0.5-0.5
	h1c0.3,0,0.5,0.2,0.5,0.5S13.8,14,13.5,14z M16.5,14h-1c-0.3,0-0.5-0.2-0.5-0.5s0.2-0.5,0.5-0.5h1c0.3,0,0.5,0.2,0.5,0.5
	S16.8,14,16.5,14z M4.5,16h-1C3.2,16,3,15.8,3,15.5S3.2,15,3.5,15h1C4.8,15,5,15.2,5,15.5S4.8,16,4.5,16z M7.5,16h-1
	C6.2,16,6,15.8,6,15.5S6.2,15,6.5,15h1C7.8,15,8,15.2,8,15.5S7.8,16,7.5,16z M10.5,16h-1C9.2,16,9,15.8,9,15.5S9.2,15,9.5,15h1
	c0.3,0,0.5,0.2,0.5,0.5S10.8,16,10.5,16z M13.5,16h-1c-0.3,0-0.5-0.2-0.5-0.5s0.2-0.5,0.5-0.5h1c0.3,0,0.5,0.2,0.5,0.5
	S13.8,16,13.5,16z M16.5,16h-1c-0.3,0-0.5-0.2-0.5-0.5s0.2-0.5,0.5-0.5h1c0.3,0,0.5,0.2,0.5,0.5S16.8,16,16.5,16z"/>
</svg>
