<?xml version="1.0" encoding="utf-8"?>
<!-- Generator: Adobe Illustrator 22.1.0, SVG Export Plug-In . SVG Version: 6.00 Build 0)  -->
<!DOCTYPE svg PUBLIC "-//W3C//DTD SVG 1.1//EN" "http://www.w3.org/Graphics/SVG/1.1/DTD/svg11.dtd">
<svg version="1.1" id="Layer_1" xmlns="http://www.w3.org/2000/svg" xmlns:xlink="http://www.w3.org/1999/xlink" x="0px" y="0px"
	 width="20px" height="20px" viewBox="0 0 20 20" style="enable-background:new 0 0 20 20;" xml:space="preserve">
<style type="text/css">
	.st0{fill:#212529;}
</style>
<path class="st0" d="M16.2,3.8C14.4,2,12,1,9.5,1S4.6,2,2.8,3.8S0,8,0,10.5s1,4.9,2.8,6.7S7,20,9.5,20s4.9-1,6.7-2.8S19,13,19,10.5
	S18,5.6,16.2,3.8z M9.5,19C4.8,19,1,15.2,1,10.5S4.8,2,9.5,2S18,5.8,18,10.5S14.2,19,9.5,19z"/>
<path class="st0" d="M8,16c-0.3,0-0.5-0.2-0.5-0.5c0-0.1,0.1-0.3,0.1-0.4l4.6-4.6L7.6,5.9c-0.2-0.2-0.2-0.5,0-0.7
	C7.9,5,8.2,5,8.4,5.1l5,5c0.2,0.2,0.2,0.5,0,0.7l-5,5C8.3,15.9,8.1,16,8,16L8,16z"/>
</svg>
