<?xml version="1.0" encoding="utf-8"?>
<!-- Generator: Adobe Illustrator 22.1.0, SVG Export Plug-In . SVG Version: 6.00 Build 0)  -->
<!DOCTYPE svg PUBLIC "-//W3C//DTD SVG 1.1//EN" "http://www.w3.org/Graphics/SVG/1.1/DTD/svg11.dtd">
<svg version="1.1" id="Layer_1" xmlns="http://www.w3.org/2000/svg" xmlns:xlink="http://www.w3.org/1999/xlink" x="0px" y="0px"
	 width="20px" height="20px" viewBox="0 0 20 20" style="enable-background:new 0 0 20 20;" xml:space="preserve">
<style type="text/css">
	.st0{fill:#212529;}
</style>
<path class="st0" d="M16.3,17.1C18,15.3,19,13,19,10.5c0-2.4-0.9-4.6-2.4-6.4l0.7-0.7l0.6,0.6c0.2,0.2,0.5,0.2,0.7,0c0,0,0,0,0,0
	c0.2-0.2,0.2-0.5,0-0.7l-2-2c-0.2-0.2-0.5-0.2-0.7,0c-0.2,0.2-0.2,0.5,0,0.7l0.6,0.6l-0.7,0.7C14.1,1.9,11.9,1,9.5,1
	S4.9,1.9,3.1,3.4L2.5,2.7l0.6-0.6c0.2-0.2,0.2-0.5,0-0.7c-0.2-0.2-0.5-0.2-0.7,0l-2,2c-0.2,0.2-0.2,0.5,0,0.7c0.2,0.2,0.5,0.2,0.7,0
	l0.6-0.6l0.7,0.7C0.9,5.9,0,8.2,0,10.5c0,2.5,1,4.8,2.7,6.6l-2,2c-0.2,0.2-0.2,0.5,0,0.7s0.5,0.2,0.7,0l2.1-2.1
	C5.1,19.2,7.2,20,9.5,20s4.4-0.8,6.1-2.2l2.1,2.1c0.2,0.2,0.5,0.2,0.7,0c0.2-0.2,0.2-0.5,0-0.7c0,0,0,0,0,0
	C18.4,19.1,16.3,17.1,16.3,17.1z M1,10.5C1,5.8,4.8,2,9.5,2S18,5.8,18,10.5S14.2,19,9.5,19S1,15.2,1,10.5z"/>
<path class="st0" d="M15.1,7.2C15,7,14.7,6.9,14.4,7.1L9.5,9.9L5.7,7.2C5.5,7.1,5.2,7.1,5,7.4C4.9,7.6,4.9,7.9,5.1,8l4.1,2.9l0,0
	c0,0,0,0,0,0l0,0l0,0l0,0l0,0l0,0l0,0l0,0l0,0l0,0c0,0,0,0,0,0l0,0l0,0l0,0l0,0h0c0,0,0,0,0.1,0h0c0,0,0,0,0.1,0l0,0
	c0,0,0.1,0,0.1,0l0,0l0,0l5.2-3C15.2,7.8,15.3,7.5,15.1,7.2L15.1,7.2z"/>
</svg>
