<?xml version="1.0" encoding="utf-8"?>
<!-- Generator: Adobe Illustrator 22.1.0, SVG Export Plug-In . SVG Version: 6.00 Build 0)  -->
<!DOCTYPE svg PUBLIC "-//W3C//DTD SVG 1.1//EN" "http://www.w3.org/Graphics/SVG/1.1/DTD/svg11.dtd">
<svg version="1.1" id="Layer_1" xmlns="http://www.w3.org/2000/svg" xmlns:xlink="http://www.w3.org/1999/xlink" x="0px" y="0px"
	 width="20px" height="20px" viewBox="0 0 20 20" style="enable-background:new 0 0 20 20;" xml:space="preserve">
<style type="text/css">
	.st0{fill:#C6007E;}
</style>
<path class="st0" d="M15.3,16.1c1.5-1.5,2.3-3.5,2.3-5.6c0-2-0.7-3.9-2.1-5.4l0.6-0.6l0.5,0.5c0.2,0.2,0.4,0.2,0.6,0c0,0,0,0,0,0
	c0.2-0.2,0.2-0.4,0-0.6l-1.7-1.7c-0.2-0.2-0.4-0.2-0.6,0c-0.2,0.2-0.2,0.4,0,0.6l0.5,0.5l-0.6,0.6c-1.5-1.3-3.4-2.1-5.4-2.1
	S5.6,3.2,4.1,4.5L3.5,3.9l0.5-0.5c0.2-0.2,0.2-0.4,0-0.6c-0.2-0.2-0.4-0.2-0.6,0L1.8,4.5c-0.2,0.2-0.2,0.4,0,0.6
	c0.2,0.2,0.4,0.2,0.6,0l0.5-0.5l0.6,0.6c-1.3,1.5-2.1,3.4-2.1,5.4c0,2.1,0.8,4.1,2.3,5.6L2,17.9c-0.2,0.2-0.2,0.4,0,0.6
	c0.2,0.2,0.4,0.2,0.6,0l1.8-1.8c1.4,1.2,3.3,1.9,5.2,1.9s3.7-0.7,5.2-1.9l1.8,1.8c0.2,0.2,0.4,0.2,0.6,0s0.2-0.4,0-0.6c0,0,0,0,0,0
	C17,17.9,15.3,16.1,15.3,16.1z M2.3,10.5c0-4,3.2-7.2,7.2-7.2s7.2,3.2,7.2,7.2s-3.2,7.2-7.2,7.2S2.3,14.5,2.3,10.5z"/>
<path class="st0" d="M14.3,7.7c-0.1-0.2-0.4-0.3-0.6-0.2L9.5,10L6.3,7.7C6.1,7.6,5.8,7.6,5.7,7.8C5.6,8,5.6,8.3,5.8,8.4l3.5,2.4l0,0
	c0,0,0,0,0,0l0,0l0,0l0,0l0,0l0,0l0,0l0,0l0,0l0,0c0,0,0,0,0,0l0,0l0,0l0,0l0,0h0c0,0,0,0,0,0h0c0,0,0,0,0,0l0,0c0,0,0.1,0,0.1,0
	l0,0l0,0l4.4-2.6C14.3,8.2,14.4,7.9,14.3,7.7L14.3,7.7z"/>
</svg>
