<?xml version="1.0" encoding="utf-8"?>
<!-- Generator: Adobe Illustrator 22.1.0, SVG Export Plug-In . SVG Version: 6.00 Build 0)  -->
<!DOCTYPE svg PUBLIC "-//W3C//DTD SVG 1.1//EN" "http://www.w3.org/Graphics/SVG/1.1/DTD/svg11.dtd">
<svg version="1.1" id="Layer_1" xmlns="http://www.w3.org/2000/svg" xmlns:xlink="http://www.w3.org/1999/xlink" x="0px" y="0px"
	 width="20px" height="20px" viewBox="0 0 20 20" style="enable-background:new 0 0 20 20;" xml:space="preserve">
<style type="text/css">
	.st0{fill:#FFFFFF;}
</style>
<path class="st0" d="M3.5,14h13c0.8,0,1.5-0.7,1.5-1.5v-8C18,3.7,17.3,3,16.5,3h-13C2.7,3,2,3.7,2,4.5v8C2,13.3,2.7,14,3.5,14z
	 M3,4.5C3,4.2,3.2,4,3.5,4h13C16.8,4,17,4.2,17,4.5v8c0,0.3-0.2,0.5-0.5,0.5h-13C3.2,13,3,12.8,3,12.5V4.5z"/>
<path class="st0" d="M19.5,15h-19C0.2,15,0,15.2,0,15.5v1C0,17.3,0.7,18,1.5,18h17c0.8,0,1.5-0.7,1.5-1.5v-1
	C20,15.2,19.8,15,19.5,15z M18.5,17h-17C1.2,17,1,16.8,1,16.5V16h18v0.5C19,16.8,18.8,17,18.5,17z"/>
</svg>
