<?xml version="1.0" encoding="utf-8"?>
<!-- Generator: Adobe Illustrator 22.1.0, SVG Export Plug-In . SVG Version: 6.00 Build 0)  -->
<!DOCTYPE svg PUBLIC "-//W3C//DTD SVG 1.1//EN" "http://www.w3.org/Graphics/SVG/1.1/DTD/svg11.dtd">
<svg version="1.1" id="Layer_1" xmlns="http://www.w3.org/2000/svg" xmlns:xlink="http://www.w3.org/1999/xlink" x="0px" y="0px"
	 width="20px" height="20px" viewBox="0 0 20 20" style="enable-background:new 0 0 20 20;" xml:space="preserve">
<style type="text/css">
	.st0{fill:#012169;}
</style>
<path class="st0" d="M19.9,0.2C19.8,0.1,19.6,0,19.5,0H19c-5,0-9,0-12,0.7C5.5,1.1,4.2,1.6,3.3,2.4c-1,0.9-1.7,2-2.1,3.4
	c-0.3,1-0.4,2.7,0.1,4.4c0.2,0.6,0.5,1.2,0.9,1.8C1.1,14,0,16.5,0,19.5C0,19.8,0.2,20,0.5,20S1,19.8,1,19.5c0-4.6,2.7-8,4.4-9.6
	C6.5,8.7,7.8,7.7,9.2,7c1.2-0.6,2.4-1,3.3-1C12.8,6,13,5.8,13,5.5S12.8,5,12.5,5c-1.1,0-2.4,0.4-3.8,1.1s-2.8,1.8-4.1,3
	c-0.5,0.5-1.2,1.2-1.8,2.1c-0.2-0.4-0.4-0.8-0.6-1.2C1.8,8.4,2,6.8,2.2,6.1C3.6,1,9.1,1,18.9,1c-1.2,6.3-3.4,10.4-6.5,12.1
	c-2.9,1.6-5.8,0.7-6.9,0.3C5.2,13.3,5,13.2,4.8,13c-0.2-0.1-0.5-0.1-0.7,0.2S4,13.8,4.2,13.9c0.3,0.2,0.6,0.3,0.8,0.4
	c0.6,0.3,1.6,0.6,2.9,0.7c0.3,0,0.5,0,0.8,0c1.5,0,2.8-0.4,4.1-1.1c1.6-0.9,3-2.3,4.1-4.3c1.3-2.3,2.3-5.4,3-9.1
	C20,0.4,20,0.3,19.9,0.2L19.9,0.2z"/>
</svg>
