<?xml version="1.0" encoding="utf-8"?>
<!-- Generator: Adobe Illustrator 22.1.0, SVG Export Plug-In . SVG Version: 6.00 Build 0)  -->
<!DOCTYPE svg PUBLIC "-//W3C//DTD SVG 1.1//EN" "http://www.w3.org/Graphics/SVG/1.1/DTD/svg11.dtd">
<svg version="1.1" id="Layer_1" xmlns="http://www.w3.org/2000/svg" xmlns:xlink="http://www.w3.org/1999/xlink" x="0px" y="0px"
	 width="20px" height="20px" viewBox="0 0 20 20" style="enable-background:new 0 0 20 20;" xml:space="preserve">
<style type="text/css">
	.st0{fill:#212529;}
</style>
<path class="st0" d="M10,20c-0.2,0-0.3-0.1-0.4-0.2c-0.1-0.1-1.4-1.8-2.8-4.4c-0.8-1.5-1.5-3-1.9-4.4C4.3,9.2,4,7.5,4,6
	c0-3.3,2.7-6,6-6s6,2.7,6,6c0,1.5-0.3,3.2-0.9,5c-0.5,1.4-1.1,2.9-1.9,4.4c-1.4,2.6-2.7,4.3-2.8,4.4C10.3,19.9,10.2,20,10,20L10,20z
	 M10,1C7.2,1,5,3.2,5,6c0,3.3,1.5,6.7,2.7,9c0.7,1.3,1.5,2.5,2.3,3.7c0.9-1.2,1.6-2.4,2.3-3.7C13.5,12.7,15,9.2,15,6
	C15,3.2,12.8,1,10,1z"/>
<path class="st0" d="M10,9C8.3,9,7,7.7,7,6s1.3-3,3-3s3,1.3,3,3S11.7,9,10,9z M10,4C8.9,4,8,4.9,8,6s0.9,2,2,2s2-0.9,2-2
	S11.1,4,10,4z"/>
</svg>
