<?xml version="1.0" encoding="utf-8"?>
<!-- Generator: Adobe Illustrator 22.1.0, SVG Export Plug-In . SVG Version: 6.00 Build 0)  -->
<!DOCTYPE svg PUBLIC "-//W3C//DTD SVG 1.1//EN" "http://www.w3.org/Graphics/SVG/1.1/DTD/svg11.dtd">
<svg version="1.1" id="Layer_1" xmlns="http://www.w3.org/2000/svg" xmlns:xlink="http://www.w3.org/1999/xlink" x="0px" y="0px"
	 width="65px" height="50.7px" viewBox="0 0 65 50.7" style="enable-background:new 0 0 65 50.7;" xml:space="preserve">
<style type="text/css">
	.st0{fill:#D9D9D6;}
</style>
<g>
	<path class="st0" d="M19,50.7c-1.8-0.1-3.5-0.6-5.1-1.4C9.8,47,6.2,43.9,3.5,40C1.1,36.4-0.1,32.1,0,27.8c0.1-3.8,1.1-7.6,3-10.9
		c2.3-4.1,5.4-7.6,9.2-10.2c4.6-3.3,9.9-5.5,15.4-6.7v4.1c-4.2,1-8,2.9-11.4,5.6c-3,2.2-4.8,5.7-4.8,9.4c0,2.2,0.6,4.5,1.8,6.4
		c1.2,2,3.7,4.1,7.6,6.2l6.6,3.4l0.2,2.2l-4.1,9.2C22.5,49.3,21,50.7,19,50.7z M56.3,50.7c-1.8-0.1-3.5-0.6-5.1-1.4
		c-4.1-2.3-7.7-5.5-10.4-9.3c-2.4-3.7-3.6-7.9-3.5-12.3c0.1-3.8,1.1-7.6,3-10.9c2.3-4.1,5.4-7.6,9.2-10.2C54.2,3.3,59.5,1.1,65,0
		v4.1c-4.2,1-8,2.9-11.4,5.6c-3,2.2-4.8,5.7-4.8,9.4c0,2.3,0.6,4.5,1.8,6.4c1.2,2,3.8,4.1,7.6,6.2l6.6,3.4l0.2,2.3l-4.1,9.2
		C59.9,49.3,58.4,50.7,56.3,50.7z"/>
</g>
</svg>
