<?xml version="1.0" encoding="utf-8"?>
<!-- Generator: Adobe Illustrator 22.1.0, SVG Export Plug-In . SVG Version: 6.00 Build 0)  -->
<!DOCTYPE svg PUBLIC "-//W3C//DTD SVG 1.1//EN" "http://www.w3.org/Graphics/SVG/1.1/DTD/svg11.dtd">
<svg version="1.1" id="Layer_1" xmlns="http://www.w3.org/2000/svg" xmlns:xlink="http://www.w3.org/1999/xlink" x="0px" y="0px"
	 width="20px" height="20px" viewBox="0 0 20 20" style="enable-background:new 0 0 20 20;" xml:space="preserve">
<style type="text/css">
	.st0{fill:#FFFFFF;}
</style>
<path class="st0" d="M18.5,18h-11C6.67,18,6,17.33,6,16.5c0-0.05,0.01-1.19,0.92-2.32c0.53-0.65,1.24-1.16,2.13-1.52
	C10.12,12.22,11.45,12,13,12s2.88,0.22,3.95,0.66c0.89,0.36,1.6,0.88,2.13,1.52C19.99,15.31,20,16.45,20,16.5
	C20,17.33,19.33,18,18.5,18z M7,16.5C7,16.78,7.23,17,7.5,17h11c0.27,0,0.5-0.22,0.5-0.5c0-0.03-0.03-0.9-0.74-1.73
	C17.29,13.61,15.47,13,13,13s-4.29,0.61-5.26,1.77C7.03,15.61,7,16.47,7,16.5z M13,11c-2.21,0-4-1.79-4-4s1.79-4,4-4s4,1.79,4,4
	S15.21,11,13,11z M13,4c-1.65,0-3,1.35-3,3s1.35,3,3,3s3-1.35,3-3S14.65,4,13,4z M4.5,18h-3C0.67,18,0,17.33,0,16.5
	c0-0.04,0.01-0.93,0.66-1.8c0.38-0.51,0.89-0.9,1.53-1.19C2.96,13.17,3.9,13,5,13c0.18,0,0.36,0.01,0.53,0.01
	C5.8,13.03,6.02,13.26,6,13.54c-0.01,0.28-0.25,0.49-0.53,0.47C5.32,14,5.16,14,5,14c-3.89,0-4,2.38-4,2.5C1,16.78,1.23,17,1.5,17h3
	C4.78,17,5,17.22,5,17.5S4.78,18,4.5,18L4.5,18z M5,12c-1.65,0-3-1.35-3-3s1.35-3,3-3s3,1.35,3,3S6.65,12,5,12z M5,7
	C3.9,7,3,7.9,3,9s0.9,2,2,2s2-0.9,2-2S6.1,7,5,7z"/>
</svg>
