<?xml version="1.0" encoding="utf-8"?>
<!-- Generator: Adobe Illustrator 22.1.0, SVG Export Plug-In . SVG Version: 6.00 Build 0)  -->
<!DOCTYPE svg PUBLIC "-//W3C//DTD SVG 1.1//EN" "http://www.w3.org/Graphics/SVG/1.1/DTD/svg11.dtd">
<svg version="1.1" id="Layer_1" xmlns="http://www.w3.org/2000/svg" xmlns:xlink="http://www.w3.org/1999/xlink" x="0px" y="0px"
	 width="20px" height="20px" viewBox="0 0 20 20" style="enable-background:new 0 0 20 20;" xml:space="preserve">
<style type="text/css">
	.st0{fill:#212529;}
</style>
<path class="st0" d="M14.5,18h-10C4.2,18,4,17.8,4,17.5S4.2,17,4.5,17h10c0.3,0,0.5,0.2,0.5,0.5S14.8,18,14.5,18z"/>
<path class="st0" d="M16.5,3C16.2,3,16,3.2,16,3.5v15c0,0.3-0.2,0.5-0.5,0.5h-11C3.7,19,3,18.3,3,17.5S3.7,16,4.5,16h9
	c0.8,0,1.5-0.7,1.5-1.5v-12C15,1.7,14.3,1,13.5,1h-10C2.7,1,2,1.7,2,2.5v15C2,18.9,3.1,20,4.5,20h11c0.8,0,1.5-0.7,1.5-1.5v-15
	C17,3.2,16.8,3,16.5,3z M3.5,2h10C13.8,2,14,2.2,14,2.5v12c0,0.3-0.2,0.5-0.5,0.5h-9c-0.6,0-1.1,0.2-1.5,0.5v-13C3,2.2,3.2,2,3.5,2z
	"/>
</svg>
