<?xml version="1.0" encoding="utf-8"?>
<!-- Generator: Adobe Illustrator 22.1.0, SVG Export Plug-In . SVG Version: 6.00 Build 0)  -->
<!DOCTYPE svg PUBLIC "-//W3C//DTD SVG 1.1//EN" "http://www.w3.org/Graphics/SVG/1.1/DTD/svg11.dtd">
<svg version="1.1" id="Layer_1" xmlns="http://www.w3.org/2000/svg" xmlns:xlink="http://www.w3.org/1999/xlink" x="0px" y="0px"
	 width="20px" height="20px" viewBox="0 0 20 20" style="enable-background:new 0 0 20 20;" xml:space="preserve">
<style type="text/css">
	.st0{fill:#FFFFFF;}
</style>
<path class="st0" d="M19.4,3.1C18.8,1.4,18,1,17.5,1c0,0,0,0,0,0c-0.6,0-1.5,0.3-3,0.7C11.4,2.6,6.7,4,2,4C0.9,4,0,5.5,0,7.5
	S0.9,11,2,11c0.4,0,0.7,0,1.1,0l1.7,6.6C5,18.4,5.7,19,6.5,19h1.3c0.4,0,0.8-0.2,1-0.5s0.2-0.7,0.1-1.1l-2.6-6
	c3.1,0.5,6,1.3,8.2,1.9c1.5,0.4,2.5,0.7,3,0.7c0,0,0,0,0,0c0.5,0,1.3-0.4,1.9-2.1c0.4-1.2,0.6-2.7,0.6-4.4S19.8,4.3,19.4,3.1
	L19.4,3.1z M16,7.5c0-0.5,0-1,0.1-1.5C16.6,6.1,17,6.7,17,7.5S16.6,8.9,16.1,9C16,8.5,16,8,16,7.5z M1,7.5C1,6,1.6,5,2,5
	c1.1,0,2.3-0.1,3.4-0.2C5.1,5.6,5,6.5,5,7.5s0.1,1.9,0.4,2.7C4.3,10.1,3.1,10,2,10C1.6,10,1,9,1,7.5z M8,17.8c0,0.1,0,0.2,0,0.2
	s-0.1,0-0.2,0H6.5c-0.3,0-0.7-0.3-0.8-0.6l-1.6-6.3c0.3,0,0.7,0.1,1,0.1C5.2,11.2,8,17.8,8,17.8z M6.5,10.4C6.2,9.7,6,8.6,6,7.5
	c0-1.1,0.2-2.2,0.5-2.9c3.2-0.5,6.1-1.3,8.2-2c0.4-0.1,0.8-0.2,1.2-0.3c-0.1,0.2-0.2,0.5-0.3,0.7C15.2,4.3,15,5.8,15,7.5
	s0.2,3.2,0.6,4.4c0.1,0.3,0.2,0.5,0.3,0.7c-0.4-0.1-0.8-0.2-1.2-0.3C12.6,11.7,9.7,10.8,6.5,10.4L6.5,10.4z M18.4,11.6
	c-0.4,1.1-0.8,1.4-0.9,1.4s-0.6-0.3-0.9-1.4c-0.2-0.5-0.3-1-0.4-1.6c0.5-0.1,0.9-0.3,1.3-0.8C17.8,8.8,18,8.1,18,7.5
	s-0.2-1.3-0.5-1.7c-0.3-0.4-0.8-0.7-1.3-0.8c0.1-0.6,0.2-1.1,0.4-1.6C16.9,2.3,17.3,2,17.5,2s0.6,0.3,0.9,1.4
	C18.8,4.5,19,5.9,19,7.5S18.8,10.5,18.4,11.6L18.4,11.6z"/>
</svg>
