<?xml version="1.0" encoding="utf-8"?>
<!-- Generator: Adobe Illustrator 22.1.0, SVG Export Plug-In . SVG Version: 6.00 Build 0)  -->
<!DOCTYPE svg PUBLIC "-//W3C//DTD SVG 1.1//EN" "http://www.w3.org/Graphics/SVG/1.1/DTD/svg11.dtd">
<svg version="1.1" id="Layer_1" xmlns="http://www.w3.org/2000/svg" xmlns:xlink="http://www.w3.org/1999/xlink" x="0px" y="0px"
	 width="20px" height="20px" viewBox="0 0 20 20" style="enable-background:new 0 0 20 20;" xml:space="preserve">
<style type="text/css">
	.st0{fill:#212529;}
</style>
<path class="st0" d="M10.7,10.5l5.6-5.6c0.2-0.2,0.2-0.5,0-0.7c-0.2-0.2-0.5-0.2-0.7,0L10,9.8L4.4,4.1C4.2,4,3.8,4,3.6,4.2
	c-0.2,0.2-0.2,0.5,0,0.7l5.6,5.6l-5.6,5.6c-0.2,0.2-0.2,0.5,0,0.7c0.2,0.2,0.5,0.2,0.7,0l5.6-5.6l5.6,5.6c0.2,0.2,0.5,0.2,0.7,0
	c0,0,0,0,0,0c0.2-0.2,0.2-0.5,0-0.7L10.7,10.5L10.7,10.5z"/>
</svg>
