<?xml version="1.0" encoding="utf-8"?>
<!-- Generator: Adobe Illustrator 22.1.0, SVG Export Plug-In . SVG Version: 6.00 Build 0)  -->
<!DOCTYPE svg PUBLIC "-//W3C//DTD SVG 1.1//EN" "http://www.w3.org/Graphics/SVG/1.1/DTD/svg11.dtd">
<svg version="1.1" id="Layer_1" xmlns="http://www.w3.org/2000/svg" xmlns:xlink="http://www.w3.org/1999/xlink" x="0px" y="0px"
	 width="20px" height="20px" viewBox="0 0 20 20" style="enable-background:new 0 0 20 20;" xml:space="preserve">
<style type="text/css">
	.st0{fill:#FFFFFF;}
</style>
<path class="st0" d="M19.9,9.6c-0.2-0.2-0.5-0.2-0.7,0l-3.6,3.6c-0.6,0.6-1.5,0.6-2.1,0L8.8,8.6C8.5,8.3,8.3,7.9,8.3,7.5
	s0.2-0.8,0.4-1.1l3.6-3.6c0.2-0.2,0.2-0.5,0-0.7s-0.5-0.2-0.7,0L8.1,5.7C7.6,6.2,7.3,6.8,7.3,7.5c0,0.3,0,0.6,0.1,0.8l-7.3,7.3
	C0.1,15.7,0,15.9,0,16v1.5C0,17.8,0.2,18,0.5,18H10c0.1,0,0.3-0.1,0.4-0.1l3.3-3.3c0.3,0.1,0.5,0.1,0.8,0.1c0.7,0,1.3-0.3,1.8-0.7
	l3.6-3.6C20,10.2,20,9.8,19.9,9.6L19.9,9.6z M9.8,17H1v-0.8l7-7c0,0,0,0,0.1,0.1l4.7,4.7c0,0,0,0,0.1,0.1C12.8,14,9.8,17,9.8,17z"/>
</svg>
