<?xml version="1.0" encoding="utf-8"?>
<!-- Generator: Adobe Illustrator 22.1.0, SVG Export Plug-In . SVG Version: 6.00 Build 0)  -->
<svg version="1.1" id="Layer_1" xmlns="http://www.w3.org/2000/svg" xmlns:xlink="http://www.w3.org/1999/xlink" x="0px" y="0px"
	 width="47.1px" height="36.7px" viewBox="0 0 47.1 36.7" style="enable-background:new 0 0 47.1 36.7;" xml:space="preserve">
<style type="text/css">
	.st0{fill:#D9D9D6;}
</style>
<g>
	<path class="st0" d="M13.7,36.7c-1.3-0.1-2.5-0.4-3.7-1c-3-1.7-5.6-4-7.5-6.7c-1.7-2.6-2.6-5.7-2.5-8.9c0.1-2.8,0.8-5.5,2.2-7.9
		c1.6-2.9,3.9-5.5,6.7-7.4C12.2,2.5,16,0.8,20,0v3c-3,0.7-5.8,2.1-8.2,4.1c-2.2,1.6-3.4,4.1-3.5,6.8c0,1.6,0.4,3.2,1.3,4.6
		c0.9,1.5,2.7,3,5.5,4.5l4.8,2.5l0.1,1.6l-3,6.7C16.3,35.7,15.2,36.7,13.7,36.7z M40.8,36.7c-1.3-0.1-2.5-0.4-3.7-1
		c-3-1.7-5.6-4-7.5-6.7c-1.7-2.6-2.6-5.8-2.5-8.9c0.1-2.8,0.8-5.5,2.2-7.9c1.6-2.9,3.9-5.5,6.7-7.4c3.3-2.4,7.1-4,11.2-4.8v3
		c-3,0.7-5.8,2.1-8.2,4.1c-2.2,1.6-3.4,4.1-3.5,6.8c0,1.6,0.4,3.2,1.3,4.6c0.9,1.4,2.7,2.9,5.5,4.5l4.8,2.5l0.1,1.6l-3,6.7
		C43.4,35.7,42.3,36.7,40.8,36.7z"/>
</g>
</svg>
