<?xml version="1.0" encoding="utf-8"?>
<!-- Generator: Adobe Illustrator 22.1.0, SVG Export Plug-In . SVG Version: 6.00 Build 0)  -->
<!DOCTYPE svg PUBLIC "-//W3C//DTD SVG 1.1//EN" "http://www.w3.org/Graphics/SVG/1.1/DTD/svg11.dtd">
<svg version="1.1" id="Layer_1" xmlns="http://www.w3.org/2000/svg" xmlns:xlink="http://www.w3.org/1999/xlink" x="0px" y="0px"
	 width="20px" height="20px" viewBox="0 0 20 20" style="enable-background:new 0 0 20 20;" xml:space="preserve">
<style type="text/css">
	.st0{fill:#FFFFFF;}
</style>
<path class="st0" d="M9.5,20c-2.5,0-4.9-1-6.7-2.8S0,13,0,10.5C0,8,1,5.6,2.8,3.8S7,1,9.5,1s4.9,1,6.7,2.8S19,8,19,10.5
	s-1,4.9-2.8,6.7S12,20,9.5,20z M9.5,2C4.8,2,1,5.8,1,10.5S4.8,19,9.5,19s8.5-3.8,8.5-8.5S14.2,2,9.5,2z"/>
<path class="st0" d="M6.5,8C5.7,8,5,7.3,5,6.5S5.7,5,6.5,5S8,5.7,8,6.5S7.3,8,6.5,8z M6.5,6C6.2,6,6,6.2,6,6.5S6.2,7,6.5,7
	S7,6.8,7,6.5S6.8,6,6.5,6z"/>
<path class="st0" d="M12.5,8C11.7,8,11,7.3,11,6.5S11.7,5,12.5,5S14,5.7,14,6.5S13.3,8,12.5,8z M12.5,6C12.2,6,12,6.2,12,6.5
	S12.2,7,12.5,7S13,6.8,13,6.5S12.8,6,12.5,6z"/>
<path class="st0" d="M9.5,17C5.9,17,3,14.1,3,10.5C3,10.2,3.2,10,3.5,10S4,10.2,4,10.5c0,3,2.5,5.5,5.5,5.5s5.5-2.5,5.5-5.5
	c0-0.3,0.2-0.5,0.5-0.5s0.5,0.2,0.5,0.5C16,14.1,13.1,17,9.5,17z"/>
</svg>
