<?xml version="1.0" encoding="utf-8"?>
<!-- Generator: Adobe Illustrator 22.1.0, SVG Export Plug-In . SVG Version: 6.00 Build 0)  -->
<!DOCTYPE svg PUBLIC "-//W3C//DTD SVG 1.1//EN" "http://www.w3.org/Graphics/SVG/1.1/DTD/svg11.dtd">
<svg version="1.1" id="Layer_1" xmlns="http://www.w3.org/2000/svg" xmlns:xlink="http://www.w3.org/1999/xlink" x="0px" y="0px"
	 width="20px" height="20px" viewBox="0 0 20 20" style="enable-background:new 0 0 20 20;" xml:space="preserve">
<style type="text/css">
	.st0{fill:#FFFFFF;}
</style>
<path class="st0" d="M15.5,19c-0.08,0-0.17-0.02-0.24-0.06L10,16.07l-5.26,2.87c-0.24,0.13-0.54,0.04-0.68-0.2
	c-0.05-0.1-0.07-0.21-0.05-0.32l0.96-5.75L1.15,8.85c-0.2-0.2-0.19-0.51,0-0.71c0.07-0.07,0.17-0.12,0.27-0.14l5.75-0.96l2.39-4.77
	c0.12-0.25,0.42-0.35,0.67-0.22c0.1,0.05,0.17,0.13,0.22,0.22l2.39,4.77l5.75,0.96c0.27,0.05,0.46,0.3,0.41,0.58
	c-0.02,0.1-0.07,0.2-0.14,0.27l-3.82,3.82l0.96,5.75c0.04,0.27-0.14,0.53-0.42,0.58C15.55,19,15.53,19,15.5,19z M10,15
	c0.08,0,0.16,0.02,0.24,0.06l4.6,2.51l-0.83-4.99c-0.03-0.16,0.03-0.32,0.14-0.44l3.31-3.31l-5.04-0.84
	c-0.16-0.03-0.29-0.13-0.36-0.27L10,3.62L7.95,7.72C7.88,7.87,7.74,7.97,7.58,7.99L2.54,8.83l3.31,3.31
	c0.11,0.11,0.17,0.28,0.14,0.44l-0.83,4.99l4.6-2.51C9.83,15.02,9.92,15,10,15z"/>
</svg>
