<?xml version="1.0" encoding="utf-8"?>
<!-- Generator: Adobe Illustrator 22.1.0, SVG Export Plug-In . SVG Version: 6.00 Build 0)  -->
<!DOCTYPE svg PUBLIC "-//W3C//DTD SVG 1.1//EN" "http://www.w3.org/Graphics/SVG/1.1/DTD/svg11.dtd">
<svg version="1.1" id="Layer_1" xmlns="http://www.w3.org/2000/svg" xmlns:xlink="http://www.w3.org/1999/xlink" x="0px" y="0px"
	 width="20px" height="20px" viewBox="0 0 20 20" style="enable-background:new 0 0 20 20;" xml:space="preserve">
<style type="text/css">
	.st0{fill:#FFFFFF;}
</style>
<path class="st0" d="M9.5,15C7,15,5,13,5,10.5S7,6,9.5,6S14,8,14,10.5S12,15,9.5,15z M9.5,7C7.6,7,6,8.6,6,10.5S7.6,14,9.5,14
	s3.5-1.6,3.5-3.5S11.4,7,9.5,7z M9.5,5C9.2,5,9,4.8,9,4.5v-3C9,1.2,9.2,1,9.5,1S10,1.2,10,1.5v3C10,4.8,9.8,5,9.5,5z M9.5,20
	C9.2,20,9,19.8,9,19.5v-3C9,16.2,9.2,16,9.5,16s0.5,0.2,0.5,0.5v3C10,19.8,9.8,20,9.5,20z M3.5,11h-3C0.2,11,0,10.8,0,10.5
	S0.2,10,0.5,10h3C3.8,10,4,10.2,4,10.5S3.8,11,3.5,11z M18.5,11h-3c-0.3,0-0.5-0.2-0.5-0.5s0.2-0.5,0.5-0.5h3c0.3,0,0.5,0.2,0.5,0.5
	S18.8,11,18.5,11z M4.5,6C4.4,6,4.2,5.9,4.1,5.9l-2-2C2,3.7,2,3.3,2.2,3.1C2.4,3,2.7,3,2.9,3.1l2,2C5,5.3,5,5.7,4.9,5.9
	C4.8,5.9,4.6,6,4.5,6L4.5,6z M2.5,18C2.2,18,2,17.8,2,17.5c0-0.1,0.1-0.3,0.1-0.4l2-2c0.2-0.2,0.5-0.2,0.7,0c0.2,0.2,0.2,0.5,0,0.7
	l-2,2C2.8,17.9,2.6,18,2.5,18L2.5,18z M16.5,18c-0.1,0-0.3-0.1-0.4-0.1l-2-2c-0.2-0.2-0.2-0.5,0-0.7c0.2-0.2,0.5-0.2,0.7,0l2,2
	c0.2,0.2,0.2,0.5,0,0.7C16.8,17.9,16.6,18,16.5,18L16.5,18z M14.5,6C14.2,6,14,5.8,14,5.5c0-0.1,0.1-0.3,0.1-0.4l2-2
	c0.2-0.2,0.5-0.2,0.7,0c0.2,0.2,0.2,0.5,0,0.7l-2,2C14.8,5.9,14.6,6,14.5,6L14.5,6z"/>
</svg>
